<svg id="Layer_1" data-name="Layer 1" xmlns="http://www.w3.org/2000/svg" viewBox="0 0 64 64"><title>Untitled-1</title><path d="M28.54,57.37c-.13-.33-.27-.66-.4-1l-.09-.21L28,56c-.06-.16-.13-.31-.19-.47l-.06-.17-.18-.45a2,2,0,0,1-.08-.22l-.16-.4L27.23,54l-.14-.36c0-.1-.07-.19-.1-.29l-.12-.32c0-.11-.08-.22-.11-.33s-.07-.19-.1-.28l-.13-.37a2.25,2.25,0,0,0-.08-.24c0-.13-.08-.27-.13-.4l-.06-.2c-.05-.15-.09-.29-.13-.44a1,1,0,0,1-.05-.16c0-.16-.1-.32-.14-.48l0-.1-.15-.54h0c-.22-.82-.4-1.65-.54-2.48h0A22.79,22.79,0,0,1,24.91,44c.18,6.93,4.05,13.58,6.14,20h0c-.71-2.17-1.61-4.37-2.51-6.6Z" fill="#1a1617"/><path d="M22.43,49.62c-.75-1-2.16-1.56-2.78-2.64.58-1.38.54-2.95,1.37-4.26a14,14,0,0,1,4.86-5.07l0,0A13.83,13.83,0,0,0,21,42.69a80,80,0,0,0-8,3.38c-.77.33-.65.21-1,1-1.12,2.37-1.83,5-2.77,7.4a31.93,31.93,0,0,0,18.86,9.3L19,52.34Z" fill="#1a1617"/><path d="M42.6,24.46l0,0Z" fill="#1a1617"/><path d="M21.88,30.86h0Z" fill="#1a1617"/><path d="M40.18,43a21.55,21.55,0,0,1-.26,3.76h0c-.1.65-.24,1.31-.39,2v0c0,.18-.09.37-.14.55a.5.5,0,0,0,0,.12l-.15.53,0,.12c0,.18-.1.36-.16.55l0,.09-.18.57h0c-.39,1.24-.84,2.46-1.31,3.68l-.07.18c0,.12-.09.25-.14.37l-1.06,2.64a0,0,0,0,1,0,0c-.78,1.94-1.55,3.86-2.17,5.76h0C36.25,57.2,40.37,50.23,40.18,43Z" fill="#1a1617"/><path d="M43.63,23.9h0Z" fill="#1a1617"/><path d="M42.48,24.6l0,0Z" fill="#1a1617"/><path d="M42.71,24.35l0,0Z" fill="#1a1617"/><path d="M20.28,24.16a1.56,1.56,0,0,0-.33.41A1.56,1.56,0,0,1,20.28,24.16Z" fill="#1a1617"/><path d="M21.5,30.62l-.08-.07Z" fill="#1a1617"/><path d="M21.24,30.39l.09.08Z" fill="#1a1617"/><path d="M21.62,30.7l.09.06-.06,0Z" fill="#1a1617"/><path d="M25.77,11l.07-.06Z" fill="#1a1617"/><path d="M20.31,24.13l0,0Z" fill="#1a1617"/><path d="M26.35,10.61h0Z" fill="#1a1617"/><path d="M29.28,9.16h0Z" fill="#1a1617"/><path d="M21.11,30.26,21,30.15Z" fill="#1a1617"/><path d="M30.48,8.79h0Z" fill="#1a1617"/><path d="M20.05,28.39s0-.09,0-.14S20,28.35,20.05,28.39Z" fill="#1a1617"/><path d="M20.62,29.62c-.1-.17-.2-.35-.29-.54C20.42,29.27,20.52,29.45,20.62,29.62Z" fill="#1a1617"/><path d="M21,30.08a2.78,2.78,0,0,1-.31-.43A2.78,2.78,0,0,0,21,30.08Z" fill="#1a1617"/><path d="M20.32,29.06a5.48,5.48,0,0,1-.23-.56A5.48,5.48,0,0,0,20.32,29.06Z" fill="#1a1617"/><path d="M33.73,44.31l-.09,0Z" fill="#1a1617"/><path d="M35.64,43.45h0Z" fill="#1a1617"/><path d="M42.57,31a2.47,2.47,0,0,0,.79-.51,3.37,3.37,0,0,1-.37.29A2.12,2.12,0,0,1,42.57,31Z" fill="#1a1617"/><path d="M39.2,37.65c.18.11.36.22.53.34l.49.43q-.33-.3-.66-.57l-.37-.23Z" fill="#1a1617"/><path d="M24.93,42.56v0Z" fill="#1a1617"/><path d="M34.7,44l-.06,0Z" fill="#1a1617"/><path d="M35.33,43.64h0Z" fill="#1a1617"/><path d="M32.72,44.47h0Z" fill="#1a1617"/><path d="M33,44.44h0Z" fill="#1a1617"/><path d="M34,44.22l-.06,0Z" fill="#1a1617"/><path d="M42.86,24.22h0Z" fill="#1a1617"/><path d="M31,8.67l.15,0Z" fill="#1a1617"/><path d="M34.38,44.1l-.05,0Z" fill="#1a1617"/><path d="M44,23.94h0Z" fill="#1a1617"/><path d="M43.5,23.92h0Z" fill="#1a1617"/><path d="M51.88,46.17c-2.61-1.18-5.2-2.58-7.83-3.48l0,0c.83,1.31.78,2.88,1.37,4.26-.63,1.08-2,1.59-2.78,2.64l3.46,2.72-9,11.24a31.87,31.87,0,0,0,18.13-9.64c-.8-2.29-1.56-4.59-2.54-6.85C52.44,46.37,52.57,46.48,51.88,46.17Z" fill="#1a1617"/><path d="M43.34,24h0Z" fill="#1a1617"/><path d="M43.17,24h0Z" fill="#1a1617"/><path d="M24.91,43.17v0Z" fill="#1a1617"/><path d="M44.58,24.39l0,0Z" fill="#1a1617"/><path d="M44.15,24l0,0Z" fill="#1a1617"/><path d="M24.91,43.9v-.48C24.9,43.58,24.91,43.74,24.91,43.9Z" fill="#1a1617"/><path d="M44.3,24.1l0,0Z" fill="#1a1617"/><path d="M33.38,44.39h0Z" fill="#1a1617"/><path d="M44,29.68h0Z" fill="#1a1617"/><path d="M43.84,29.89l0,0Z" fill="#1a1617"/><path d="M43.51,30.29l-.07.07Z" fill="#1a1617"/><path d="M44.28,29.16v0Z" fill="#1a1617"/><path d="M43.66,30.12v0Z" fill="#1a1617"/><path d="M42.56,31l-.19.06Z" fill="#1a1617"/><path d="M42.5,12.72a3.11,3.11,0,0,1,.23.28A3.11,3.11,0,0,0,42.5,12.72Z" fill="#1a1617"/><path d="M42,12.18l.27.29Z" fill="#1a1617"/><path d="M44.63,28.27l0,.05Z" fill="#1a1617"/><path d="M44.53,28.58v0Z" fill="#1a1617"/><path d="M42.56,41l.21.28Z" fill="#1a1617"/><path d="M40.12,42a.53.53,0,0,1,0,.13A.53.53,0,0,0,40.12,42Z" fill="#1a1617"/><path d="M43,41.62l.18.27Z" fill="#1a1617"/><path d="M42.34,31l-.22,0Z" fill="#1a1617"/><path d="M41.55,11.7l.28.27Z" fill="#1a1617"/><path d="M31.58,8.56l.16,0Z" fill="#1a1617"/><path d="M40.34,38.52l.34.33Z" fill="#1a1617"/><path d="M41,39.11l.27.28Z" fill="#1a1617"/><path d="M41.53,39.71l.24.27Z" fill="#1a1617"/><path d="M42.06,40.32l.23.28Z" fill="#1a1617"/><path d="M40.15,42.43c0,.1,0,.21,0,.31C40.16,42.64,40.16,42.53,40.15,42.43Z" fill="#1a1617"/><path d="M39.55,10.12l.31.2Z" fill="#1a1617"/><path d="M41.07,11.25l.29.26Z" fill="#1a1617"/><path d="M35,8.49c.13,0,.27,0,.4.06C35.3,8.52,35.16,8.51,35,8.49Z" fill="#1a1617"/><path d="M32.21,8.47h2.68A12,12,0,0,0,32.21,8.47Z" fill="#1a1617"/><path d="M40.57,10.84l.3.24Z" fill="#1a1617"/><path d="M40.06,10.46l.31.22Z" fill="#1a1617"/><path d="M35.62,8.58l.39.08Z" fill="#1a1617"/><path d="M39,9.8l.32.18Z" fill="#1a1617"/><path d="M38.47,9.52l.33.16Z" fill="#1a1617"/><path d="M37.92,9.27c.11.05.23.09.34.15C38.15,9.36,38,9.32,37.92,9.27Z" fill="#1a1617"/><path d="M36.79,8.86l.35.11Z" fill="#1a1617"/><path d="M37.36,9.05l.34.13Z" fill="#1a1617"/><path d="M36.21,8.71l.37.09Z" fill="#1a1617"/><path d="M22.45,25a1.16,1.16,0,0,1,.13.57,12,12,0,0,0,.3,2.29c.06.23.49.48.43.12a16.44,16.44,0,0,1-.12-2.14l0,0a.88.88,0,0,1-.29-.65,3.06,3.06,0,0,1,0-.7l.2,0c0-.17,0-.34-.07-.5l-.2-1.09A13.82,13.82,0,0,1,27,15.8a10.25,10.25,0,0,0,6.4,3.73C38,20,40.6,21.51,42,24c0,.21-.06.42-.08.64a.26.26,0,0,1,0,.19v.34c0,.5,0,.54-.09.61A18.6,18.6,0,0,1,41.71,28c-.06.36.37.11.43-.12a13,13,0,0,0,.16-2.28,1.06,1.06,0,0,1,.06-.84l.1-.15,0,0,.1-.12,0,0a.57.57,0,0,1,.11-.11l0,0,.12-.11h0a1.66,1.66,0,0,1,.3-.19h0l.14-.06h0a.53.53,0,0,1,.12,0h0l.13,0h0a1.12,1.12,0,0,1,.32,0h0l.14,0,0,0,.12.07,0,0,0,0a1.61,1.61,0,0,1,.22.23l0,0a1.08,1.08,0,0,1,.11.18c.94-3.72.59-8.07-1.53-11-.14-.19-.28-.38-.43-.56a3.11,3.11,0,0,0-.23-.28l-.21-.25L42,12.18,41.83,12l-.28-.27c-.06-.07-.13-.13-.19-.19l-.29-.26-.2-.17-.3-.24-.2-.16-.31-.22-.2-.14-.31-.2L39.34,10,39,9.8l-.22-.12-.33-.16-.21-.1c-.11-.06-.23-.1-.34-.15l-.22-.09-.34-.13L37.14,9l-.35-.11-.21-.06-.37-.09L36,8.66l-.39-.08-.19,0c-.13,0-.27,0-.4-.06l-.12,0H32.2l-.46.06-.16,0-.41.07-.15,0-.49.11h-.05c-.4.1-.79.23-1.18.37h0a14.85,14.85,0,0,0-2.91,1.44h0l-.51.34-.07.06-.53.38C21,13.87,19.06,18,20.72,23.93A1.83,1.83,0,0,1,22.45,25Z" fill="#3d3d3d"/><path d="M24.2,24.24a13.38,13.38,0,0,1,2.16-.36,12.3,12.3,0,0,1,2.47.17c.55.08.72.11,1.53.29a8.58,8.58,0,0,0,1.76.27,9.09,9.09,0,0,0,1.15,0,19.24,19.24,0,0,0,1.9-.32,14.05,14.05,0,0,1,2.72-.38,8.71,8.71,0,0,1,1.84.17,6.5,6.5,0,0,1,1,.22,6.37,6.37,0,0,0,.85.2c.19,0,.29.07.34.14,0-.22,0-.43.08-.64-3.9-4.13-12.56-2.25-15-7.35-1.83,1.5-2.72,4.17-4.08,6.26l.2,1.09c0,.16.05.33.07.5l.31-.07Z" fill="#f6d5b8"/><path d="M25.9,37.65a3.59,3.59,0,0,0-.12.35c-.14.47-.27,1-.4,1.61,2,3.08,4.38,4.88,6.94,4.88h.4l.23,0H33l.31,0h0l.26-.06.09,0,.24-.07.06,0,.3-.1.05,0,.26-.11.06,0a5,5,0,0,0,.61-.31h0l.3-.18h0a9.9,9.9,0,0,0,1.84-1.54,24,24,0,0,1-4.93-.23,12.41,12.41,0,0,1-4.37-1.53,9.83,9.83,0,0,1-2.38-2l.11-.5s3.75,2.82,6.54,2.82a9.71,9.71,0,0,0,6.64-3,14.74,14.74,0,0,0,3-6.39l.22,0h0l.19-.06h0a2.12,2.12,0,0,0,.42-.22,3.37,3.37,0,0,0,.37-.29.6.6,0,0,1,.08-.08l.07-.07.14-.15v0l.16-.2,0,0c0-.06.09-.13.14-.2h0c.1-.16.19-.32.28-.5v0a5.38,5.38,0,0,0,.24-.55v0a2,2,0,0,0,.08-.26l0-.05c0-.1.06-.2.08-.3a4.83,4.83,0,0,0,0-3.4,1.08,1.08,0,0,0-.11-.18l0,0a1.61,1.61,0,0,0-.22-.23l0,0,0,0L44.15,24l0,0-.14,0h0a1.12,1.12,0,0,0-.32,0h0l-.13,0h0a.53.53,0,0,0-.12,0h0l-.14.06h0a1.66,1.66,0,0,0-.3.19h0l-.12.11,0,0a.57.57,0,0,0-.11.11l0,0-.1.12,0,0-.1.15a1.06,1.06,0,0,0-.06.84,13,13,0,0,1-.16,2.28c-.06.23-.49.48-.43.12a18.6,18.6,0,0,0,.13-2.27l0,0a1,1,0,0,0-.3.28A4.11,4.11,0,0,0,41,27.45a5.45,5.45,0,0,1-.53,1.5,3.41,3.41,0,0,1-3,1.53,4.5,4.5,0,0,1-2-.46,2.72,2.72,0,0,1-.77-.55,5.33,5.33,0,0,1-1.27-2.33,1.84,1.84,0,0,0-.38-.81c-.12-.13-.16-.14-.4-.16h-.35c-.26,0-.34.07-.46.33a2.77,2.77,0,0,0-.24.7,4.18,4.18,0,0,1-.33.9,5.58,5.58,0,0,1-1,1.42,3,3,0,0,1-1.79.92,5.11,5.11,0,0,1-3.07-.4,1.87,1.87,0,0,1-.94-1,14.16,14.16,0,0,1-.81-2.35,1.68,1.68,0,0,0-.49-.85A16.44,16.44,0,0,0,23.31,28c.06.36-.37.11-.43-.12a12,12,0,0,1-.3-2.29,1.16,1.16,0,0,0-.13-.57,1.83,1.83,0,0,0-1.73-1.1.78.78,0,0,0-.38.18l0,0h0l0,0a1.56,1.56,0,0,0-.33.41,4.89,4.89,0,0,0,0,3.4,2.29,2.29,0,0,0,.08.28c0,.05,0,.1,0,.14s0,.07,0,.11a5.48,5.48,0,0,0,.23.56v0c.09.19.19.37.29.54l0,0a2.78,2.78,0,0,0,.31.43l.06.07.09.11.13.13.09.08.09.08.08.07.12.08,0,0,.06,0,.15.09h0a1.77,1.77,0,0,0,.85.22,14.43,14.43,0,0,0,3.17,6.54l0,0ZM42.51,27.4a16.6,16.6,0,0,0-.06-2l.17-.22a1.43,1.43,0,0,1,1-.49.72.72,0,0,1,.54.43A4.23,4.23,0,0,1,44,28a4.47,4.47,0,0,1-1.1,1.92,2.78,2.78,0,0,1-.78.54A16.08,16.08,0,0,0,42.51,27.4Zm-9.95,4.86c.89-.26,1.75-.65,2.64-.92a24.54,24.54,0,0,1-2.3,1.76c-.19.1-.45.3-.65.11-.68-.55-1.47-1-2.16-1.51C30.92,31.87,31.73,32.1,32.56,32.26Zm3.88,2.68a32.34,32.34,0,0,1-7.49.2ZM20.76,28a4.23,4.23,0,0,1-.1-2.89.72.72,0,0,1,.55-.43,1.43,1.43,0,0,1,.95.49l.18.22a16.62,16.62,0,0,0-.07,2,16.09,16.09,0,0,0,.37,3.08,2.83,2.83,0,0,1-.79-.54A4.45,4.45,0,0,1,20.76,28Z" fill="#f6d5b8"/><path d="M44,28a4.23,4.23,0,0,0,.09-2.89.72.72,0,0,0-.54-.43,1.43,1.43,0,0,0-1,.49l-.17.22a16.6,16.6,0,0,1,.06,2,16.08,16.08,0,0,1-.36,3.08,2.78,2.78,0,0,0,.78-.54A4.47,4.47,0,0,0,44,28Z" fill="#e6c6aa"/><path d="M22.64,30.48a16.09,16.09,0,0,1-.37-3.08,16.62,16.62,0,0,1,.07-2l-.18-.22a1.43,1.43,0,0,0-.95-.49.72.72,0,0,0-.55.43,4.23,4.23,0,0,0,.1,2.89,4.45,4.45,0,0,0,1.09,1.92A2.83,2.83,0,0,0,22.64,30.48Z" fill="#e6c6aa"/><path d="M24.91,43.9c0-.16,0-.32,0-.48v-.51c0-.12,0-.23,0-.35V42.5a17.22,17.22,0,0,1,.95-4.85A14,14,0,0,0,21,42.72C20.19,44,20.23,45.6,19.65,47c.62,1.08,2,1.59,2.78,2.64L19,52.34l9.1,11.42a29.22,29.22,0,0,0,3,.22c-2.09-6.44-6-13.09-6.14-20Z" fill="#383032"/><path d="M42.66,49.62c.76-1,2.15-1.56,2.78-2.64-.59-1.38-.54-2.95-1.37-4.26l0,0h0l-.42-.14c-.13-.22-.27-.45-.41-.66L43,41.62c-.09-.13-.17-.26-.27-.39L42.56,41l-.27-.35-.23-.28L41.77,40l-.24-.27-.31-.32L41,39.11l-.27-.26-.34-.33-.12-.1L39.73,38c-.17-.12-.35-.23-.53-.34A16.46,16.46,0,0,1,40.12,42a.53.53,0,0,1,0,.13c0,.11,0,.22,0,.33s0,.21,0,.31a1.77,1.77,0,0,0,0,.23c.19,7.26-3.93,14.23-6.12,21a28.81,28.81,0,0,0,3.1-.35l9-11.24Z" fill="#383032"/><path d="M25.88,37.65c0,.11-.07.23-.1.35a3.59,3.59,0,0,1,.12-.35Z" fill="#383032"/><path d="M32.45,40.46c-2.79,0-6.54-2.82-6.54-2.82l-.11.5a9.83,9.83,0,0,0,2.38,2,12.41,12.41,0,0,0,4.37,1.53,24,24,0,0,0,4.93.23,15.73,15.73,0,0,0,2.09-2.79,16.31,16.31,0,0,0-.48-1.66A9.71,9.71,0,0,1,32.45,40.46Z" fill="#e6c6aa"/><path d="M27.74,55.36l-.18-.45Z" fill="#fff"/><path d="M28.14,56.37l-.09-.21Z" fill="#fff"/><path d="M27,53.38l-.12-.32Z" fill="#fff"/><path d="M28,56c-.06-.16-.13-.31-.19-.47C27.86,55.69,27.93,55.84,28,56Z" fill="#fff"/><path d="M27.23,54l-.14-.36Z" fill="#fff"/><path d="M37.51,55a1.34,1.34,0,0,1-.07.18Z" fill="#fff"/><path d="M39,50.6l0,.09Z" fill="#fff"/><path d="M39.21,49.93l0,.12Z" fill="#fff"/><path d="M38.82,51.26h0Z" fill="#fff"/><path d="M39.38,49.28a.5.5,0,0,0,0,.12A.5.5,0,0,1,39.38,49.28Z" fill="#fff"/><path d="M36.24,58.14,37.3,55.5c-.35.88-.7,1.75-1.06,2.62Z" fill="#fff"/><path d="M39.53,48.68v0Z" fill="#fff"/><path d="M35.45,50,34.4,51.82l0,.07L35.49,50Z" fill="#fff"/><polygon points="30.2 51.82 30.22 51.74 29.18 50.24 29.14 50.3 30.2 51.82" fill="#fff"/><path d="M26.13,50.8a1,1,0,0,1-.05-.16A1,1,0,0,0,26.13,50.8Z" fill="#fff"/><path d="M26.32,51.44l-.06-.2Z" fill="#fff"/><path d="M26.76,52.73c0-.1-.07-.19-.1-.28C26.69,52.54,26.72,52.63,26.76,52.73Z" fill="#fff"/><path d="M25.94,50.16l0-.1Z" fill="#fff"/><path d="M25.76,49.52h0Z" fill="#fff"/><path d="M26.53,52.08a2.25,2.25,0,0,0-.08-.24A2.25,2.25,0,0,1,26.53,52.08Z" fill="#fff"/><path d="M27.48,54.69l-.16-.4Z" fill="#fff"/><path d="M24.93,42.5v.06c0,.12,0,.23,0,.35V44A22.79,22.79,0,0,0,25.22,47L27.35,52l4.54-6.16.47-.75L33,46l4.42,6.06,2.53-5.34A21.55,21.55,0,0,0,40.18,43a1.77,1.77,0,0,1,0-.23c0-.1,0-.21,0-.31s0-.22,0-.33a.53.53,0,0,0,0-.13,16.46,16.46,0,0,0-.92-4.32v0l.37.23h0l-.5-.4a16.31,16.31,0,0,1,.48,1.66,15.73,15.73,0,0,1-2.09,2.79,9.9,9.9,0,0,1-1.84,1.54h0l-.3.18h0a5,5,0,0,1-.61.31l-.06,0-.26.11-.05,0-.3.1-.06,0-.24.07-.09,0-.26.06h0l-.31,0H33l-.23,0h-.4c-2.56,0-4.94-1.8-6.94-4.88.13-.57.26-1.14.4-1.61,0-.12.07-.24.1-.35l0,0,0,0A17.22,17.22,0,0,0,24.93,42.5Z" fill="#fff"/><path d="M36.24,58.14v0h0a62.76,62.76,0,0,0-1.84-6.2l0,0,0-.07L35.45,50l-3.09-4.8-3.18,5.07,1,1.5,0,.08,0,0-1.66,5.57,0-.05h0c.9,2.23,1.8,4.43,2.51,6.6L32,64c.69,0,1.38,0,2.06-.07.62-1.9,1.39-3.82,2.17-5.76A0,0,0,0,0,36.24,58.14Z" fill="#3d3d3d"/><polygon points="32.35 45.06 31.89 45.81 32.35 45.17 32.97 46.01 32.35 45.06" fill="#f23034"/><path d="M33,46l-.61-.84L35.45,50l0,.05-1.06,1.87,0,0a62.76,62.76,0,0,1,1.84,6.2h0c.36-.87.71-1.74,1.06-2.62.05-.12.09-.25.14-.37a1.34,1.34,0,0,0,.07-.18c.47-1.22.92-2.44,1.31-3.68h0l.18-.57,0-.09c.06-.19.11-.37.16-.55l0-.12.15-.53a.5.5,0,0,1,0-.12c0-.18.1-.37.14-.55v0c.15-.65.29-1.31.39-2h0l-2.53,5.34Z" fill="#e6e6e6"/><path d="M27.35,52,25.22,47h0c.14.83.32,1.66.54,2.48h0l.15.54,0,.1c0,.16.09.32.14.48a1,1,0,0,0,.05.16c0,.15.08.29.13.44l.06.2c.05.13.09.27.13.4a2.25,2.25,0,0,1,.08.24l.13.37c0,.09.06.18.1.28s.07.22.11.33l.12.32c0,.1.07.19.1.29l.14.36.09.26.16.4a2,2,0,0,0,.08.22l.18.45.06.17c.06.16.13.31.19.47l.06.16.09.21c.13.34.27.67.4,1l0,.05,1.66-5.57,0,0L29.14,50.3l0-.06,3.18-5.07-.47.64Z" fill="#e6e6e6"/><path d="M26.93,16.61c2.48,5.1,11.14,3.22,15,7.35-1.37-2.45-4-3.94-8.61-4.43A10.25,10.25,0,0,1,27,15.8a13.82,13.82,0,0,0-4.11,7.07C24.21,20.78,25.1,18.11,26.93,16.61Z" fill="#e6c6aa"/><path d="M41.93,25.13v-.34a.26.26,0,0,0,0-.19c0-.07-.15-.1-.34-.14a6.37,6.37,0,0,1-.85-.2,6.5,6.5,0,0,0-1-.22,8.71,8.71,0,0,0-1.84-.17,14.05,14.05,0,0,0-2.72.38,19.24,19.24,0,0,1-1.9.32,9.09,9.09,0,0,1-1.15,0,8.58,8.58,0,0,1-1.76-.27c-.81-.18-1-.21-1.53-.29a12.3,12.3,0,0,0-2.47-.17,13.38,13.38,0,0,0-2.16.36l-.77.15-.31.07-.2,0a3.06,3.06,0,0,0,0,.7.88.88,0,0,0,.29.65l0,0a1.68,1.68,0,0,1,.49.85,14.16,14.16,0,0,0,.81,2.35,1.87,1.87,0,0,0,.94,1,5.11,5.11,0,0,0,3.07.4,3,3,0,0,0,1.79-.92,5.58,5.58,0,0,0,1-1.42,4.18,4.18,0,0,0,.33-.9,2.77,2.77,0,0,1,.24-.7c.12-.26.2-.32.46-.33h.35c.24,0,.28,0,.4.16a1.84,1.84,0,0,1,.38.81,5.33,5.33,0,0,0,1.27,2.33,2.72,2.72,0,0,0,.77.55,4.5,4.5,0,0,0,2,.46,3.41,3.41,0,0,0,3-1.53,5.45,5.45,0,0,0,.53-1.5A4.11,4.11,0,0,1,41.51,26a1,1,0,0,1,.3-.28l0,0C41.94,25.67,41.94,25.63,41.93,25.13Z" fill="#383032"/><path d="M32.9,33.1a24.54,24.54,0,0,0,2.3-1.76c-.89.27-1.75.66-2.64.92-.83-.16-1.64-.39-2.47-.56.69.55,1.48,1,2.16,1.51C32.45,33.4,32.71,33.2,32.9,33.1Z" fill="#e6c6aa"/><path d="M36.44,34.94l-7.49.2A32.34,32.34,0,0,0,36.44,34.94Z" fill="#e6c6aa"/></svg>