<svg aria-hidden="true" style="position: absolute; width: 0; height: 0; overflow: hidden;" version="1.1" xmlns="http://www.w3.org/2000/svg" xmlns:xlink="http://www.w3.org/1999/xlink">
  <defs>
    <symbol id="cup" viewBox="0 0 32 32">
      <path d="M9.25,15.44c-0.76-1.66-1.33-3.86-1.33-6.69H3.31v1.73C3.31,12.25,5.7,14.7,9.25,15.44L9.25,15.44z M28.69,10.48V8.75h-4.61c0,2.83-0.58,5.03-1.33,6.69C26.29,14.7,28.69,12.25,28.69,10.48L28.69,10.48z M31,8.17v2.31c0,3.43-4.15,7.21-9.77,7.48c-0.72,0.92-1.39,1.46-1.71,1.71c-0.96,0.87-1.21,1.77-1.21,2.92s0.26,2.31,2.31,2.31c1.73,0,3.46,1.15,3.46,2.88v1.15c0,0.32-0.25,0.58-0.58,0.58h-15c-0.32,0-0.58-0.25-0.58-0.58v-1.15c0-1.73,1.73-2.88,3.46-2.88c2.13,0,2.31-1.15,2.31-2.31s-0.25-2.06-1.21-2.92c-0.32-0.25-0.99-0.79-1.71-1.71C5.15,17.69,1,13.91,1,10.48V8.17c0-0.96,0.78-1.73,1.73-1.73h5.19V4.71c0-1.59,1.3-2.88,2.88-2.88h10.39c1.59,0,2.88,1.3,2.88,2.88v1.73h5.19C30.22,6.44,31,7.22,31,8.17L31,8.17z"></path>
    </symbol>
    <symbol id="fullscreen" viewBox="0 0 32 32">
      <path d="M4.2,20.3H2.1A1.11,1.11,0,0,0,1,21.4v8.5A1.11,1.11,0,0,0,2.1,31h8.5a1.11,1.11,0,0,0,1.1-1.1h0V27.8a1.11,1.11,0,0,0-1.1-1.1h-5a.32.32,0,0,1-.3-.3h0v-5A1.11,1.11,0,0,0,4.2,20.3ZM2.1,11.7H4.2a1.11,1.11,0,0,0,1.1-1.1v-5a.32.32,0,0,1,.3-.3h5a1.11,1.11,0,0,0,1.1-1.1V2.1A1.11,1.11,0,0,0,10.6,1H2.1A1.11,1.11,0,0,0,1,2.1v8.5A1.11,1.11,0,0,0,2.1,11.7Zm24.3,15h-5a1.11,1.11,0,0,0-1.1,1.1v2.1A1.11,1.11,0,0,0,21.4,31h8.5A1.11,1.11,0,0,0,31,29.9h0V21.4a1.11,1.11,0,0,0-1.1-1.1H27.8a1.11,1.11,0,0,0-1.1,1.1v5A.27.27,0,0,1,26.4,26.7ZM20.3,2.1V4.2a1.11,1.11,0,0,0,1.1,1.1h5a.32.32,0,0,1,.3.3h0v5a1.11,1.11,0,0,0,1.1,1.1h2.1A1.11,1.11,0,0,0,31,10.6h0V2.1A1.11,1.11,0,0,0,29.9,1H21.4A1.11,1.11,0,0,0,20.3,2.1Z"></path>
    </symbol>
    <symbol id="exit_fullscreen" viewBox="0 0 32 32">
      <path d="M8.5,31h2.1a1.11,1.11,0,0,0,1.1-1.1V21.4a1.11,1.11,0,0,0-1.1-1.1H2.1A1.11,1.11,0,0,0,1,21.4H1v2.1a1.11,1.11,0,0,0,1.1,1.1h5a.32.32,0,0,1,.3.3h0v5A1.18,1.18,0,0,0,8.5,31ZM10.6,1h-2A1.13,1.13,0,0,0,7.4,2.1v5a.32.32,0,0,1-.3.3h-5A1.11,1.11,0,0,0,1,8.5v2.1a1.11,1.11,0,0,0,1.1,1.1h8.5a1.11,1.11,0,0,0,1.1-1.1V2.1A1.11,1.11,0,0,0,10.6,1ZM24.9,24.6h5A1.11,1.11,0,0,0,31,23.5V21.4a1.11,1.11,0,0,0-1.1-1.1H21.4a1.11,1.11,0,0,0-1.1,1.1h0v8.5A1.11,1.11,0,0,0,21.4,31h2.1a1.11,1.11,0,0,0,1.1-1.1v-5A.27.27,0,0,1,24.9,24.6Zm6.1-14v-2a1.11,1.11,0,0,0-1.1-1.1h-5a.32.32,0,0,1-.3-.3h0v-5a1.11,1.11,0,0,0-1.1-1.1H21.4a1.11,1.11,0,0,0-1.1,1.1h0v8.5a1.11,1.11,0,0,0,1.1,1.1h8.5A1.28,1.28,0,0,0,31,10.6Z"></path>
    </symbol>
    <symbol id="basket" viewBox="0 0 34 32">
      <path d="M10.193 25.6c-0.067-0.005-0.145-0.008-0.224-0.008-1.772 0-3.208 1.436-3.208 3.208s1.436 3.208 3.208 3.208c0.079 0 0.157-0.003 0.234-0.008l-0.010 0.001c0.067 0.005 0.145 0.008 0.224 0.008 1.772 0 3.208-1.436 3.208-3.208s-1.436-3.208-3.208-3.208c-0.079 0-0.157 0.003-0.234 0.008l0.010-0.001zM0 0v3.2h3.395l6.119 12.16-2.341 3.84c-0.176 0.459-0.296 0.99-0.335 1.543l-0.001 0.018c0.064 1.781 1.524 3.201 3.315 3.201 0.028 0 0.056-0 0.084-0.001l-0.004 0h20.355v-3.2h-19.715c-0.177-0.007-0.32-0.145-0.335-0.319l-0-0.001v-0.148l1.561-2.716h12.542c0.048 0.003 0.104 0.004 0.16 0.004 1.167 0 2.184-0.64 2.72-1.589l0.008-0.016 6.119-10.373c0.208-0.16 0.34-0.409 0.34-0.689 0-0.032-0.002-0.064-0.005-0.096l0 0.004c0.001-0.020 0.002-0.044 0.002-0.068 0-0.862-0.699-1.561-1.561-1.561-0.047 0-0.094 0.002-0.14 0.006l0.006-0h-25.155l-1.53-3.2zM27.192 25.6c-1.689 0.102-3.021 1.497-3.021 3.202 0 1.772 1.436 3.208 3.208 3.208s3.208-1.436 3.208-3.208c0-0.001 0-0.002 0-0.002v0c-0.064-1.781-1.524-3.201-3.315-3.201-0.028 0-0.056 0-0.084 0.001l0.004-0z"></path>
    </symbol>
    <symbol id="eye" viewBox="0 0 50 32">
      <path d="M26.209 8.109c-0.396-0.070-0.853-0.109-1.319-0.109-4.423 0-8.008 3.585-8.008 8.008s3.585 8.008 8.008 8.008c4.423 0 8.008-3.585 8.008-8.008 0-0.483-0.043-0.955-0.124-1.414l0.007 0.048c-0.598-3.352-3.214-5.954-6.524-6.526l-0.048-0.007zM24.25 13.737c0 0 0 0-0 0-0.946 0-1.713 0.764-1.717 1.709v0h-2.451c-0 0-0 0-0 0-0.16 0-0.289-0.129-0.289-0.289 0-0.003 0-0.005 0-0.008v0c0.182-2.22 1.94-3.978 4.144-4.159l0.016-0.001c0.002-0 0.005-0 0.008-0 0.16 0 0.289 0.129 0.289 0.289 0 0 0 0 0 0v0z"></path>
      <path d="M49.171 14.345c-2.739-3.364-12.402-14.345-24.312-14.345s-21.573 10.981-24.281 14.345c-0.361 0.449-0.579 1.026-0.579 1.655s0.218 1.205 0.583 1.66l-0.004-0.005c2.708 3.364 12.363 14.345 24.281 14.345s21.573-10.981 24.312-14.345c0.361-0.449 0.579-1.026 0.579-1.655s-0.218-1.205-0.583-1.66l0.004 0.005zM24.898 27.614c-0.012 0-0.025 0-0.039 0-6.397 0-11.582-5.186-11.582-11.582s5.186-11.582 11.582-11.582c6.386 0 11.565 5.168 11.582 11.549v0.002c0 6.397-5.186 11.582-11.582 11.582v0z"></path>
    </symbol>
    <symbol id="home" viewBox="0 0 33 32">
      <path d="M32.515 14.704l-3.754-3.84c-0.034-0.036-0.055-0.085-0.055-0.139 0-0.003 0-0.007 0-0.010l-0 0v-7.805c0-0.007 0-0.015 0-0.023 0-1.164-0.943-2.107-2.107-2.107-0.003 0-0.006 0-0.008 0h-1.209c-0 0-0 0-0 0-1.194 0-2.162 0.968-2.162 2.162 0 0.008 0 0.016 0 0.025v-0.001 2.162l-2.739-2.786c-1.022-1.069-2.341-2.341-3.723-2.341s-2.708 1.272-3.723 2.341l-12.082 12.324c-0.575 0.51-0.936 1.251-0.936 2.076 0 1.524 1.231 2.761 2.754 2.771h1.788c0.116 0 0.211 0.094 0.211 0.211v0 9.889c0 1.319 1.069 2.388 2.388 2.388v0h19.2c0 0 0 0 0 0 1.321 0 2.392-1.068 2.396-2.388v-9.905c0.004-0.109 0.093-0.195 0.203-0.195 0 0 0 0 0 0h1.834c1.497-0.004 2.708-1.219 2.708-2.716 0-0.839-0.381-1.59-0.979-2.088l-0.004-0.004z"></path>
    </symbol>
    <symbol xmlns="http://www.w3.org/2000/svg" viewBox="0 0 32 32" id="pause">
      <path d="M12.6 26.1c0 2.2-1.8 3.9-4 3.9s-4-1.7-4-3.9V5.9c0-2.2 1.8-3.9 4-3.9s4 1.7 4 3.9v20.2zm14.8 0c0 2.2-1.8 3.9-4 3.9s-4-1.7-4-3.9V5.9c0-2.2 1.8-3.9 4-3.9s4 1.7 4 3.9v20.2z"></path>
    </symbol>
    <symbol xmlns="http://www.w3.org/2000/svg" viewBox="0 0 32 32" id="play">
      <path d="M27.9 14.5L6.9 2.3c-.6-.3-1.2-.3-1.7 0s-.9.9-.9 1.5v24.5c0 .6.4 1.2.9 1.5.3.2.5.3.9.3s.6-.1.9-.3l20.9-12.3c.8-.5 1.1-1.5.6-2.4-.2-.3-.3-.4-.6-.6z"></path>
    </symbol>
    <symbol id="replay" viewBox="0 0 29 32">
      <path d="M24.517 27.724c2.652-2.647 4.292-6.306 4.292-10.349 0-7.959-6.36-14.433-14.275-14.617l-0.017-0-0.724-1.924c-0.407-1.069-1.379-1.117-2.221-0.11l-4.814 5.91c-0.814 1.014-0.441 1.993 0.841 2.2l7.517 1.193c1.283 0.207 2.069-0.372 1.69-1.29l-0.641-1.655c4.87 0.974 8.488 5.216 8.488 10.303 0 5.797-4.699 10.497-10.497 10.497-4.8 0-8.848-3.222-10.098-7.622l-0.018-0.074c-0.148-1.011-1.008-1.778-2.048-1.778-1.143 0-2.069 0.926-2.069 2.069 0 0.28 0.056 0.548 0.157 0.792l-0.005-0.014c1.754 6.249 7.401 10.754 14.1 10.754 4.039 0 7.695-1.638 10.341-4.285l0-0z"></path>
    </symbol>
    <symbol id="rotate" viewBox="0 0 30 32">
      <path d="M2.576 13.378c1.046-0.009 1.942-0.642 2.335-1.544l0.006-0.017c1.684-3.956 5.539-6.68 10.029-6.681h0c2.492 0.001 4.784 0.853 6.603 2.281l-0.023-0.018-1.428 0.219c-0.493 0.079-0.874 0.471-0.936 0.962l-0.001 0.005c-0.006 0.043-0.009 0.093-0.009 0.143 0 0.453 0.266 0.843 0.65 1.024l0.007 0.003 7.867 3.512c0.131 0.058 0.284 0.092 0.445 0.092 0.613 0 1.111-0.495 1.116-1.107v-0l0.039-8.663c0-0.002 0-0.004 0-0.006 0-0.616-0.5-1.116-1.116-1.116-0.386 0-0.726 0.196-0.926 0.493l-0.003 0.004-1.069 1.639c-2.885-2.846-6.849-4.605-11.225-4.605-6.59 0-12.249 3.988-14.694 9.683l-0.040 0.104c-0.129 0.297-0.204 0.643-0.204 1.007 0 1.414 1.135 2.562 2.544 2.583l0.002 0z"></path>
      <path d="M29.463 19.778c-0.466-0.701-1.252-1.156-2.145-1.156-1.058 0-1.966 0.64-2.36 1.553l-0.006 0.017c-1.678 3.95-5.524 6.67-10.005 6.673h-0c-2.494-0.001-4.789-0.852-6.611-2.281l0.023 0.018 1.436-0.219c0.538-0.086 0.944-0.547 0.944-1.103 0-0.452-0.269-0.842-0.656-1.017l-0.007-0.003-7.859-3.528c-0.131-0.058-0.284-0.093-0.445-0.093-0.613 0-1.111 0.495-1.116 1.107v8.664c-0 0.003-0 0.007-0 0.011 0 0.495 0.325 0.914 0.773 1.057l0.008 0.002c0.099 0.032 0.212 0.050 0.33 0.050 0.385 0 0.724-0.195 0.925-0.491l0.002-0.004 1.038-1.639c2.882 2.834 6.838 4.583 11.203 4.583 6.582 0 12.235-3.978 14.685-9.662l0.040-0.104c0.136-0.305 0.215-0.66 0.215-1.034 0-0.52-0.153-1.005-0.416-1.411l0.006 0.010z"></path>
    </symbol>
    <symbol id="speaker_off" viewBox="0 0 42 32">
      <path d="M9.132 7.29h-5.612c-1.944 0-3.52 1.576-3.52 3.52v10.669c0.018 1.932 1.586 3.492 3.52 3.497h5.612c0 0 0 0 0 0 0.254 0 0.46-0.206 0.46-0.46 0-0.003-0-0.005-0-0.008v0-16.757c0-0.002 0-0.005 0-0.008 0-0.25-0.203-0.453-0.453-0.453-0.003 0-0.006 0-0.008 0h0z"></path>
      <path d="M23.415 0v0c-0.008-0-0.018-0-0.027-0-1.805 0-3.474 0.586-4.827 1.577l0.023-0.016-7.071 5.167c-0.099 0.070-0.163 0.183-0.164 0.312v17.936c0.001 0.129 0.065 0.242 0.163 0.311l0.001 0.001 7.087 5.151c1.33 0.975 2.998 1.561 4.804 1.561 0.004 0 0.008 0 0.013 0h-0.001c0.014 0 0.031 0.001 0.047 0.001 1.070 0 1.94-0.854 1.966-1.918l0-0.002v-28.16c-0.026-1.066-0.896-1.921-1.966-1.921-0.017 0-0.033 0-0.050 0.001l0.002-0z"></path>
      <path d="M40.813 10.212l0.916 0.916c0.305 0.305 0.305 0.799 0 1.104l-10.745 10.745c-0.305 0.305-0.799 0.305-1.104 0l-0.916-0.916c-0.305-0.305-0.305-0.799 0-1.104l10.745-10.745c0.305-0.305 0.799-0.305 1.104 0z"></path>
      <path d="M28.967 11.128l0.916-0.916c0.305-0.305 0.799-0.305 1.104 0l10.745 10.745c0.305 0.305 0.305 0.799 0 1.104l-0.916 0.916c-0.305 0.305-0.799 0.305-1.104 0l-10.745-10.745c-0.305-0.305-0.305-0.799 0-1.104z"></path>
    </symbol>
    <symbol id="speaker_on" viewBox="0 0 42 32">
      <path d="M9.132 7.29h-5.612c-1.944 0-3.52 1.576-3.52 3.52v10.669c0.018 1.932 1.586 3.492 3.52 3.497h5.612c0 0 0 0 0 0 0.254 0 0.46-0.206 0.46-0.46 0-0.003-0-0.005-0-0.008v0-16.757c0-0.002 0-0.005 0-0.008 0-0.25-0.203-0.453-0.453-0.453-0.003 0-0.006 0-0.008 0h0z"></path>
      <path d="M23.415 0v0c-0.008-0-0.018-0-0.027-0-1.805 0-3.474 0.586-4.827 1.577l0.023-0.016-7.071 5.167c-0.099 0.070-0.163 0.183-0.164 0.312v17.936c0.001 0.129 0.065 0.242 0.163 0.311l0.001 0.001 7.087 5.151c1.33 0.975 2.998 1.561 4.804 1.561 0.004 0 0.008 0 0.013 0h-0.001c0.014 0 0.031 0.001 0.047 0.001 1.070 0 1.94-0.854 1.966-1.918l0-0.002v-28.16c-0.026-1.066-0.896-1.921-1.966-1.921-0.017 0-0.033 0-0.050 0.001l0.002-0z"></path>
      <path d="M31.781 7.805c-0.3-0.3-0.714-0.485-1.171-0.485-0.914 0-1.656 0.741-1.656 1.656 0 0.457 0.185 0.871 0.485 1.171v0c1.537 1.537 2.488 3.66 2.488 6.006s-0.951 4.469-2.488 6.006l-0 0c-0.3 0.3-0.485 0.714-0.485 1.171 0 0.914 0.741 1.656 1.656 1.656 0.457 0 0.871-0.185 1.171-0.485v0c2.135-2.137 3.456-5.088 3.456-8.347s-1.321-6.211-3.456-8.347l0 0z"></path>
      <path d="M36.769 2.81c-0.3-0.3-0.714-0.485-1.171-0.485-0.914 0-1.656 0.741-1.656 1.656 0 0.457 0.185 0.871 0.485 1.171v0c2.809 2.815 4.547 6.701 4.547 10.993s-1.737 8.178-4.547 10.993l0-0c-0.3 0.3-0.485 0.714-0.485 1.171 0 0.914 0.741 1.656 1.656 1.656 0.457 0 0.871-0.185 1.171-0.485v0c3.407-3.415 5.514-8.129 5.514-13.335s-2.107-9.92-5.515-13.335l0 0z"></path>
    </symbol>
    <symbol id="chat" viewBox="0 0 32 32">
      <path d="M16 1c8.281 0.004 14.992 6.718 14.992 15 0 2.749-0.74 5.326-2.031 7.541l0.038-0.071 1.93 6c0.038 0.11 0.060 0.237 0.060 0.369 0 0.321-0.13 0.611-0.34 0.821v0c-0.213 0.209-0.504 0.337-0.826 0.337-0.13 0-0.255-0.021-0.372-0.060l0.008 0.002-6-1.93c-2.143 1.251-4.718 1.99-7.466 1.99-8.284 0-15-6.716-15-15s6.716-15 15-15c0.002 0 0.004 0 0.006 0h-0zM16 28.66c2.483-0.001 4.798-0.716 6.752-1.951l-0.052 0.031c0.177-0.114 0.393-0.182 0.625-0.182 0.134 0 0.264 0.023 0.384 0.065l-0.008-0.002 4.3 1.38-1.39-4.33c-0.040-0.112-0.062-0.241-0.062-0.375 0-0.232 0.068-0.448 0.185-0.629l-0.003 0.005c1.188-1.893 1.893-4.194 1.893-6.66 0-6.992-5.668-12.66-12.66-12.66s-12.66 5.668-12.66 12.66c0 6.992 5.668 12.66 12.66 12.66 0.009 0 0.019 0 0.028-0h-0.001zM14.54 16c0 0.806 0.654 1.46 1.46 1.46s1.46-0.654 1.46-1.46c0-0.806-0.654-1.46-1.46-1.46v0c-0.806 0-1.46 0.654-1.46 1.46v0zM8.68 16c-0 0.003-0 0.006-0 0.010 0 0.812 0.658 1.47 1.47 1.47s1.47-0.658 1.47-1.47c0-0.812-0.658-1.47-1.47-1.47-0.004 0-0.007 0-0.011 0h0.001c-0.806 0-1.46 0.654-1.46 1.46v0zM20.39 16c-0 0.003-0 0.006-0 0.010 0 0.812 0.658 1.47 1.47 1.47s1.47-0.658 1.47-1.47c0-0.812-0.658-1.47-1.47-1.47v0c-0.003-0-0.006-0-0.010-0-0.806 0-1.46 0.654-1.46 1.46 0 0 0 0 0 0v0z"></path>
    </symbol>
    <symbol id="info" viewBox="0 0 32 32">
      <path d="M22.11 27.76l-0.41 1.72c-1.23 0.49-2.22 0.87-2.95 1.13-0.723 0.248-1.556 0.391-2.423 0.391-0.048 0-0.096-0-0.144-0.001l0.007 0c-0.094 0.006-0.204 0.010-0.315 0.010-1.207 0-2.315-0.422-3.184-1.127l0.009 0.007c-0.763-0.677-1.241-1.661-1.241-2.755 0-0.026 0-0.052 0.001-0.078l-0 0.004c0-0.48 0.033-0.952 0.096-1.414l-0.006 0.054c0.070-0.47 0.17-1 0.31-1.58l1.54-5.56c0.13-0.53 0.25-1 0.34-1.51 0.088-0.393 0.139-0.845 0.14-1.309v-0.001c0.008-0.068 0.013-0.146 0.013-0.225 0-0.477-0.167-0.915-0.446-1.259l0.003 0.004c-0.381-0.273-0.857-0.437-1.371-0.437-0.098 0-0.196 0.006-0.291 0.018l0.011-0.001c-0.436 0.002-0.856 0.071-1.249 0.198l0.029-0.008c-0.42 0.12-0.78 0.25-1.080 0.36l0.41-1.72c1-0.41 2-0.77 2.9-1.070 0.78-0.274 1.679-0.438 2.614-0.45l0.006-0c0.094-0.006 0.203-0.010 0.314-0.010 1.186 0 2.275 0.419 3.125 1.117l-0.009-0.007c0.745 0.676 1.212 1.648 1.212 2.729 0 0.039-0.001 0.078-0.002 0.116l0-0.006c0 0.25 0 0.67-0.090 1.28-0.051 0.619-0.161 1.191-0.325 1.739l0.015-0.059-1.53 5.54c-0.121 0.402-0.239 0.915-0.328 1.437l-0.012 0.083c-0.079 0.382-0.133 0.829-0.15 1.285l-0 0.015c-0.009 0.069-0.014 0.149-0.014 0.23 0 0.492 0.192 0.939 0.505 1.27l-0.001-0.001c0.402 0.259 0.893 0.413 1.42 0.413 0.091 0 0.182-0.005 0.271-0.014l-0.011 0.001c0.452-0.006 0.884-0.079 1.291-0.209l-0.031 0.009c0.402-0.103 0.745-0.223 1.075-0.367l-0.044 0.017zM22.5 4.5c0 0.021 0.001 0.046 0.001 0.071 0 0.961-0.412 1.825-1.068 2.427l-0.002 0.002c-0.65 0.62-1.532 1.001-2.503 1.001-0.031 0-0.061-0-0.091-0.001l0.005 0c-0.024 0.001-0.053 0.001-0.081 0.001-0.976 0-1.863-0.381-2.521-1.003l0.002 0.002c-0.665-0.601-1.081-1.466-1.081-2.429 0-0.025 0-0.050 0.001-0.075l-0 0.004c-0-0.020-0.001-0.043-0.001-0.067 0-0.964 0.416-1.831 1.078-2.431l0.003-0.002c0.675-0.639 1.589-1.031 2.595-1.031s1.92 0.393 2.597 1.033l-0.002-0.002c0.659 0.607 1.071 1.474 1.071 2.437 0 0.022-0 0.044-0.001 0.066l0-0.003z"></path>
    </symbol>
    <symbol id="minus" viewBox="0 0 32 32">
      <path d="M28.34 18.66h-24.68c-1.469 0-2.66-1.191-2.66-2.66s1.191-2.66 2.66-2.66h24.68c1.469 0 2.66 1.191 2.66 2.66s-1.191 2.66-2.66 2.66z"></path>
    </symbol>
    <symbol id="note" viewBox="0 0 32 32">
      <path d="M16.66 31c-0 0-0 0-0.001 0-0.257 0-0.49-0.103-0.659-0.27l0 0c-0.171-0.167-0.276-0.4-0.276-0.657 0-0.061 0.006-0.121 0.017-0.178l-0.001 0.006 0.66-3.76c0.033-0.198 0.126-0.369 0.26-0.5l9.28-9.28c0.33-0.348 0.755-0.603 1.232-0.726l0.018-0.004c0.107-0.024 0.231-0.037 0.357-0.037 0.498 0 0.946 0.21 1.262 0.546l0.001 0.001 1.55 1.55c0.394 0.396 0.638 0.942 0.638 1.545s-0.244 1.149-0.638 1.545l-9.28 9.28c-0.131 0.134-0.302 0.227-0.495 0.259l-0.005 0.001-3.76 0.68zM20.42 29.4v0zM18.19 26.76l-0.37 2.15 2.18-0.38 9-9.070c0.063-0.057 0.102-0.139 0.102-0.23s-0.039-0.173-0.102-0.23l-0-0-1.5-1.52s-0.11 0.080-0.23 0.21z"></path>
      <path d="M13.51 27.25h-9.070c-1.9 0-3.44-1.54-3.44-3.44v0-19.37c0-1.9 1.54-3.44 3.44-3.44v0h14.37c1.9 0 3.44 1.54 3.44 3.44v0 12.56c0.003 0.029 0.005 0.063 0.005 0.097 0 0.519-0.421 0.94-0.94 0.94s-0.94-0.421-0.94-0.94c0-0.034 0.002-0.068 0.005-0.101l-0 0.004v-12.56c-0.006-0.865-0.705-1.564-1.569-1.57h-14.371c-0.863 0.006-1.56 0.706-1.56 1.57 0 0 0 0 0 0v0 19.37c0 0 0 0 0 0 0 0.864 0.697 1.564 1.559 1.57h9.071c0.029-0.003 0.063-0.005 0.097-0.005 0.519 0 0.94 0.421 0.94 0.94s-0.421 0.94-0.94 0.94c-0.034 0-0.068-0.002-0.101-0.005l0.004 0z"></path>
      <path d="M17.56 12.87h-11.87c-0.029 0.003-0.063 0.005-0.097 0.005-0.519 0-0.94-0.421-0.94-0.94s0.421-0.94 0.94-0.94c0.034 0 0.068 0.002 0.101 0.005l-0.004-0h11.87c0.029-0.003 0.063-0.005 0.097-0.005 0.519 0 0.94 0.421 0.94 0.94s-0.421 0.94-0.94 0.94c-0.034 0-0.068-0.002-0.101-0.005l0.004 0z"></path>
      <path d="M12.56 17.88h-6.87c-0.519 0-0.94-0.421-0.94-0.94s0.421-0.94 0.94-0.94h6.87c0.519 0 0.94 0.421 0.94 0.94s-0.421 0.94-0.94 0.94v0z"></path>
      <path d="M11.31 7.87h-5.62c-0.029 0.003-0.063 0.005-0.097 0.005-0.519 0-0.94-0.421-0.94-0.94s0.421-0.94 0.94-0.94c0.034 0 0.068 0.002 0.101 0.005l-0.004-0h5.62c0.029-0.003 0.063-0.005 0.097-0.005 0.519 0 0.94 0.421 0.94 0.94s-0.421 0.94-0.94 0.94c-0.034 0-0.068-0.002-0.101-0.005l0.004 0z"></path>
    </symbol>
    <symbol id="plus" viewBox="0 0 32 32">
      <path d="M18.66 3.66v24.68c0 1.469-1.191 2.66-2.66 2.66s-2.66-1.191-2.66-2.66v-24.68c0-1.469 1.191-2.66 2.66-2.66s2.66 1.191 2.66 2.66z"></path>
      <path d="M28.34 18.66h-24.68c-1.469 0-2.66-1.191-2.66-2.66s1.191-2.66 2.66-2.66h24.68c1.469 0 2.66 1.191 2.66 2.66s-1.191 2.66-2.66 2.66z"></path>
    </symbol>
    <symbol viewBox="0 0 32 32" id="close">
      <path d="M18 16L29.1 4.9c.5-.5.5-1.4 0-1.9s-1.4-.5-1.9 0L16.1 14.1 4.8 2.8c-.7-.4-1.5-.3-1.9.3-.3.5-.3 1.1 0 1.6L14.1 16 2.9 27.3c-.5.5-.5 1.4 0 1.9s1.4.5 1.9 0L16 17.9l11.2 11.3c.6.4 1.5.2 1.9-.5.3-.4.3-1 0-1.4L18 16z"></path>
    </symbol>
    <symbol viewBox="0 0 32 32" id="emoji">
      <path d="M27 5C24.1 2.1 20.2.5 16 .5S8 2.1 5.1 5C2.2 8 .5 11.9.5 16S2.1 24 5 27c2.9 2.9 6.8 4.5 11 4.5s8-1.6 11-4.5c2.9-2.9 4.5-6.8 4.5-11S29.9 8 27 5zM16 29.1C8.8 29.1 3 23.2 3 16S8.8 2.9 16 2.9 29.1 8.8 29.1 16 23.3 29.1 16 29.1z"></path>
      <path d="M23.7 18.1c-.5-.2-1.1.1-1.4.6-.2.5-.6 1-1.1 1.6-1.3 1.5-3 2.3-5 2.3s-3.8-.8-5.2-2.4c-.5-.6-.9-1.2-1.2-1.6-.3-.5-.9-.7-1.4-.5-.7.3-1 1.1-.6 1.7.3.6.8 1.3 1.4 1.9 1.9 2.1 4.3 3.2 7 3.2s5.1-1.1 6.9-3.2c.6-.7 1-1.4 1.3-1.9.3-.7 0-1.5-.7-1.7z"></path>
      <circle cx="10.9" cy="11.6" r="1.9"></circle>
      <circle cx="21.2" cy="11.6" r="1.9"></circle>
    </symbol>
    <symbol id="send" viewBox="0 0 32 32">
      <path d="M1.22 4.55l5.31 10.050c0.070 0.15 8.83 1.23 8.83 1.39s-8.86 0.76-8.93 0.91l-5.29 10.3c-0.085 0.144-0.135 0.317-0.135 0.501 0 0.552 0.448 1 1 1 0.124 0 0.242-0.022 0.352-0.064l-0.007 0.002 28.060-11.7c0.364-0.173 0.611-0.538 0.611-0.96s-0.247-0.787-0.604-0.957l-0.006-0.003-28-11.9c-0.093-0.032-0.201-0.050-0.313-0.050-0.552 0-1 0.448-1 1 0 0.176 0.046 0.342 0.125 0.485l-0.003-0.005z"></path>
    </symbol>
    <symbol id="speaker-off" viewBox="0 0 32 32">
      <path d="M7.39 9.15h-3.93c-1.359 0-2.46 1.101-2.46 2.46v0 7.46c0 1.359 1.101 2.46 2.46 2.46v0h3.93c0.177 0 0.32-0.143 0.32-0.32v0-11.74c0-0.177-0.143-0.32-0.32-0.32v0z"></path>
      <path d="M17.39 4.050v0c-0.007-0-0.016-0-0.025-0-1.264 0-2.433 0.409-3.382 1.101l0.016-0.011-4.95 3.61c-0.068 0.052-0.111 0.132-0.111 0.223 0 0.009 0 0.019 0.001 0.028l-0-0.001v12.5c0 0.001 0 0.002 0 0.003 0 0.089 0.043 0.168 0.109 0.217l0.001 0 4.95 3.61c0.936 0.687 2.111 1.1 3.382 1.1 0.003 0 0.005 0 0.008 0h-0c0.006 0 0.013 0 0.020 0 0.752 0 1.363-0.601 1.38-1.349l0-0.002v-19.69c-0.017-0.744-0.623-1.34-1.37-1.34-0.011 0-0.021 0-0.032 0l0.002-0z"></path>
      <path d="M29.864 11.509c0.391 0.391 0.391 1.024 0 1.414l-6.873 6.873c-0.391 0.391-1.024 0.391-1.414 0s-0.391-1.024 0-1.414l6.873-6.873c0.391-0.391 1.024-0.391 1.414 0z"></path>
      <path d="M21.579 11.506c0.391-0.391 1.024-0.391 1.414 0l6.873 6.873c0.391 0.391 0.391 1.024 0 1.414s-1.024 0.391-1.414 0l-6.873-6.873c-0.391-0.391-0.391-1.024 0-1.414z"></path>
    </symbol>
    <symbol id="checkbox-path" viewBox="0 0 21 21">
      <path d="M5,10.75l3.5,3.5,9.12-10A1.94,1.94,0,0,0,16.18,1H5.36A4.36,4.36,0,0,0,1,5.36V15.64A4.36,4.36,0,0,0,5.36,20H15.64A4.36,4.36,0,0,0,20,15.64V8"/>
    </symbol>
    <symbol id="dealer" viewBox="0 0 32 32">
      <path d="M1.775 30.64c-0.393-0.454-0.633-1.050-0.633-1.702 0-0.121 0.008-0.24 0.024-0.357l-0.002 0.014 2.045-25.425c-0-0.008-0-0.018-0-0.027 0-0.763 0.329-1.45 0.853-1.926l0.002-0.002c0.489-0.447 1.144-0.721 1.862-0.721 0.064 0 0.128 0.002 0.191 0.007l-0.009-0h8.605c0.204-0.009 0.443-0.014 0.683-0.014 2.717 0 5.286 0.634 7.567 1.763l-0.1-0.045c2.14 1.127 3.851 2.821 4.969 4.882l0.031 0.063c1.119 2.106 1.776 4.605 1.776 7.257 0 0.154-0.002 0.307-0.007 0.46l0-0.022c0.005 0.155 0.007 0.338 0.007 0.521 0 3.070-0.721 5.972-2.002 8.545l0.050-0.111c-1.274 2.451-3.213 4.406-5.578 5.665l-0.072 0.035c-2.478 1.265-5.404 2.006-8.504 2.006-0.164 0-0.327-0.002-0.49-0.006l0.024 0h-9.34c-0.013 0-0.028 0-0.043 0-0.76 0-1.442-0.332-1.91-0.858l-0.002-0.003zM23.935 14.83c0.017-0.215 0.027-0.465 0.027-0.717 0-2.515-0.96-4.805-2.533-6.525l0.007 0.007c-1.767-1.554-4.099-2.502-6.652-2.502-0.258 0-0.514 0.010-0.767 0.029l0.034-0.002h-5.345l-1.74 21.735h5.675q11.325 0 11.295-12.025z"></path>
    </symbol>
    <symbol id="club" viewBox="0 0 32 32">
      <path d="M13.17 31h5.64c-0.85-2.798-1.552-6.142-1.971-9.574l-0.029-0.296-0.21-1.76c-0.005-0.039-0.008-0.084-0.008-0.129 0-0.338 0.168-0.637 0.425-0.818l0.003-0.002c0.082-0.073 0.191-0.117 0.31-0.117s0.228 0.044 0.311 0.117l-0.001-0c0.082 0.086 0.133 0.203 0.133 0.331 0 0.017-0.001 0.034-0.003 0.051l0-0.002c0.013 1.276 0.384 2.462 1.016 3.468l-0.016-0.028c0.601 0.953 1.406 1.726 2.357 2.273l0.033 0.017c0.921 0.523 2.023 0.832 3.198 0.832 0.602 0 1.185-0.081 1.738-0.233l-0.046 0.011c2.839-0.828 4.877-3.407 4.877-6.462 0-2.294-1.15-4.32-2.905-5.533l-0.022-0.015c-1.013-0.677-2.258-1.081-3.598-1.081-0.032 0-0.065 0-0.097 0.001l0.005-0c-1.357 0.013-2.611 0.445-3.64 1.173l0.020-0.013c-0.461 0.318-0.861 0.674-1.214 1.073l-0.006 0.007c-0.075 0.102-0.188 0.172-0.318 0.19l-0.002 0c-0.010 0.001-0.021 0.001-0.032 0.001-0.254 0-0.46-0.206-0.46-0.46 0-0.014 0.001-0.029 0.002-0.043l-0 0.002c0.038-0.147 0.142-0.263 0.277-0.319l0.003-0.001c1.065-0.545 1.936-1.333 2.564-2.295l0.016-0.025c0.673-1.034 1.073-2.299 1.073-3.657 0-1.471-0.469-2.833-1.266-3.943l0.014 0.020c-0.72-1-1.689-1.778-2.817-2.254l-0.044-0.016c-0.722-0.298-1.561-0.471-2.44-0.471-2.021 0-3.828 0.914-5.031 2.351l-0.008 0.010c-0.964 1.161-1.549 2.667-1.549 4.31 0 0.648 0.091 1.274 0.261 1.868l-0.012-0.048c0.506 1.797 1.696 3.255 3.265 4.103l0.035 0.017c0.155 0.056 0.274 0.175 0.329 0.326l0.001 0.004c0.004 0.021 0.006 0.046 0.006 0.071 0 0.249-0.201 0.45-0.45 0.45-0.013 0-0.025-0.001-0.037-0.002l0.002 0c-0.142-0.021-0.262-0.098-0.339-0.208l-0.001-0.002c-1.2-1.353-2.943-2.201-4.884-2.201-0.57 0-1.124 0.073-1.651 0.211l0.045-0.010c-1.146 0.293-2.135 0.853-2.933 1.613l0.003-0.003c-1.037 0.983-1.756 2.292-1.995 3.762l-0.005 0.038c-0.058 0.332-0.091 0.714-0.091 1.104 0 2.364 1.22 4.442 3.065 5.64l0.026 0.016c0.986 0.625 2.187 0.996 3.474 0.996 1.445 0 2.781-0.467 3.864-1.259l-0.019 0.013c1.661-1.216 2.735-3.15 2.76-5.336l0-0.004c-0-0.005-0-0.010-0-0.016 0-0.154 0.070-0.292 0.179-0.384l0.001-0.001c0.081-0.063 0.183-0.101 0.295-0.101s0.214 0.038 0.296 0.102l-0.001-0.001c0.218 0.174 0.356 0.439 0.356 0.736 0 0.037-0.002 0.073-0.006 0.108l0-0.004-0.21 1.88c-0.409 3.695-1.080 7.030-2.015 10.254l0.105-0.424z"></path>
    </symbol>
    <symbol id="diamond" viewBox="0 0 32 32">
      <path d="M3.5 16l12.5 15.5 12.5-15.5-12.5-15.5-12.5 15.5z"></path>
    </symbol>
    <symbol id="heart" viewBox="0 0 32 32">
      <path d="M23.8 2h-0.34c-3.62 0-7 2-7.46 5.29-0.41-3.29-3.84-5.29-7.46-5.29h-0.33c-4.060 0.13-7.71 3.19-7.71 8.51 0 4.81 3.68 8.38 7.9 12.090 2.726 2.358 5.207 4.776 7.538 7.331l0.062 0.069c2.391-2.627 4.872-5.045 7.49-7.307l0.11-0.093c4.22-3.71 7.9-7.28 7.9-12.090 0-5.32-3.65-8.38-7.7-8.51z"></path>
    </symbol>
    <symbol id="spade" viewBox="0 0 32 32">
      <path d="M22.45 8.12c-5.23-4.82-6.45-7.63-6.45-7.63v0s-1.22 2.81-6.45 7.63c-4.19 3.88-7.55 7.010-7.55 11.44 0 3.866 3.134 7 7 7v0c0.114 0.006 0.246 0.010 0.38 0.010 2.508 0 4.723-1.252 6.054-3.166l0.016-0.024c-0.38 2.77-1.060 6.93-2.78 8.13h6.66c-1.72-1.2-2.4-5.36-2.78-8.13 1.347 1.938 3.562 3.19 6.070 3.19 0.134 0 0.267-0.004 0.399-0.011l-0.018 0.001c3.866 0 7-3.134 7-7v0c0-4.43-3.36-7.56-7.55-11.44z"></path>
    </symbol>
  </defs>
</svg>
