<?xml version="1.0" encoding="utf-8"?>
<!-- Generator: Adobe Illustrator 24.3.0, SVG Export Plug-In . SVG Version: 6.00 Build 0)  -->
<svg version="1.1" id="Capa_1" xmlns="http://www.w3.org/2000/svg" xmlns:xlink="http://www.w3.org/1999/xlink" x="0px" y="0px"
	 viewBox="0 0 512 512" style="enable-background:new 0 0 512 512;" xml:space="preserve">
<style type="text/css">
	.st0{fill:#FFFFFF;}
</style>
<g>
	<g>
		<path class="st0" d="M424.3,368.7c-4.1,0-7.5,3.4-7.5,7.5v16c0,4.1,3.4,7.5,7.5,7.5s7.5-3.4,7.5-7.5v-16
			C431.8,372.1,428.5,368.7,424.3,368.7z"/>
	</g>
</g>
<g>
	<g>
		<path class="st0" d="M39.6,360.7c-4.1,0-7.5,3.4-7.5,7.5v32.1c0,4.1,3.4,7.5,7.5,7.5s7.5-3.4,7.5-7.5v-32.1
			C47.1,364.1,43.7,360.7,39.6,360.7z"/>
	</g>
</g>
<g>
	<g>
		<path class="st0" d="M39.6,424.8c-4.1,0-7.5,3.4-7.5,7.5v0.1c0,4.1,3.4,7.5,7.5,7.5s7.5-3.4,7.5-7.5
			C47.1,428.1,43.7,424.8,39.6,424.8z"/>
	</g>
</g>
<g>
	<g>
		<path class="st0" d="M472.4,0H296.1c-21.8,0-39.6,17.7-39.6,39.6v217h-217C17.7,256.5,0,274.3,0,296.1v176.4
			C0,494.3,17.8,512,39.6,512h384.8c21.8,0,39.6-17.7,39.6-39.6v-8.5h8.5c21.8,0,39.6-17.7,39.6-39.6V39.6C512,17.7,494.3,0,472.4,0
			z M64.1,497H39.6C26,497,15,486,15,472.4V296.1c0-13.5,11-24.6,24.6-24.6h24.6V497z M448.9,472.4c0,13.5-11,24.6-24.6,24.6h-24.6
			V328.1c0-4.1-3.4-7.5-7.5-7.5s-7.5,3.4-7.5,7.5V497H79.1V271.5h305.6v24.6c0,4.1,3.4,7.5,7.5,7.5s7.5-3.4,7.5-7.5v-24.6h24.6
			c13.5,0,24.6,11,24.6,24.6V472.4z M497,424.3c0,13.5-11,24.6-24.6,24.6h-8.5v-49.1H497V424.3z M497,64.1h-24.6
			c-4.1,0-7.5,3.4-7.5,7.5s3.4,7.5,7.5,7.5H497v305.6h-33.1v-88.7c0-21.8-17.7-39.6-39.6-39.6H271.5V79.1h168.9
			c4.1,0,7.5-3.4,7.5-7.5s-3.4-7.5-7.5-7.5H271.5V39.6c0-13.5,11-24.6,24.6-24.6h176.4C486,15,497,26,497,39.6L497,64.1L497,64.1z"
			/>
	</g>
</g>
<g>
	<g>
		<path class="st0" d="M400.3,32.1h-32.1c-4.1,0-7.5,3.4-7.5,7.5s3.4,7.5,7.5,7.5h32.1c4.1,0,7.5-3.4,7.5-7.5S404.4,32.1,400.3,32.1
			z"/>
	</g>
</g>
<g>
	<g>
		<path class="st0" d="M336.2,32.1L336.2,32.1c-4.2,0-7.5,3.4-7.5,7.5s3.4,7.5,7.5,7.5s7.5-3.4,7.5-7.5
			C343.7,35.4,340.4,32.1,336.2,32.1z"/>
	</g>
</g>
<g>
	<g>
		<path class="st0" d="M235.8,33.1l-40.1-24c-3.6-2.1-8.2-1-10.3,2.6c-2.1,3.6-1,8.2,2.6,10.3l16.9,10.1h-69.1
			c-57.2,0-103.7,46.5-103.7,103.7v69.1L21.9,188c-2.1-3.6-6.7-4.7-10.3-2.6c-3.6,2.1-4.7,6.7-2.6,10.3l24,40.1
			c1.4,2.3,3.8,3.6,6.4,3.6s5.1-1.4,6.4-3.6l24-40.1c2.1-3.6,1-8.2-2.6-10.3c-3.6-2.1-8.2-1-10.3,2.6l-10.1,16.9v-69.1
			c0-48.9,39.8-88.7,88.7-88.7h69.1L188,57.2c-3.6,2.1-4.7,6.7-2.6,10.3c1.4,2.3,3.9,3.6,6.4,3.6c1.3,0,2.6-0.3,3.9-1.1l40.1-24
			c2.3-1.4,3.6-3.8,3.6-6.4C239.5,36.9,238.1,34.5,235.8,33.1z"/>
	</g>
</g>
</svg>
