<svg width="0" height="0" class="hidden">
  <symbol xmlns="http://www.w3.org/2000/svg" viewBox="0 0 32 26" id="1">
    <title>1</title>
    <path d="M16 26c8.84 0 16-5.11 16-11.42v-3.34c-2-4.67-8.79-8.08-16-8.08S2 6.57 0 11.24v3.34C0 20.89 7.16 26 16 26z" fill="#cfcfcf"></path>
    <path d="M16 22.84c8.84 0 16-5.11 16-11.42S24.84 0 16 0 0 5.11 0 11.42s7.16 11.42 16 11.42z" fill="#ebebec"></path>
    <path d="M16 3.16c-7.21 0-14 3.41-16 8.08v3.34A8.41 8.41 0 0 0 .71 18v-3.42h3.73v7.89a18.32 18.32 0 0 0 8 3.23v-3.21h7.19v3.21a18.13 18.13 0 0 0 8.17-3.41v-7.71h3.51V18a8.41 8.41 0 0 0 .69-3.42v-3.34c-2-4.67-8.79-8.08-16-8.08z" fill="none"></path>
    <path d="M27.78 19.13v3.16l.68-.55A11.08 11.08 0 0 0 31.28 18v-3.17a15 15 0 0 1-3.5 4.3zM16 22.84a22 22 0 0 1-3.58-.3v3.16A22 22 0 0 0 16 26a22.35 22.35 0 0 0 3.61-.3v-3.16a22.35 22.35 0 0 1-3.61.3zM.71 14.79V18a11.41 11.41 0 0 0 3.73 4.52V19.3a11.39 11.39 0 0 1-3.73-4.51z"
          fill="#56656b"></path>
    <path d="M31.28 14.82a8.4 8.4 0 0 0 .72-3.4 8.52 8.52 0 0 0-.7-3.35l-15.1 3.35zM19.6 22.54a18.28 18.28 0 0 0 8.17-3.4L16.2 11.42zM.73 8a8.32 8.32 0 0 0 0 6.77l15.47-3.35z" fill="none"></path>
    <path d="M12.43.3a18.09 18.09 0 0 0-8.18 3.39l12 7.73z" fill="none"></path>
    <path d="M27.71 3.66A18.1 18.1 0 0 0 19.6.3l-3.4 11.12zM4.46 19.31a18.23 18.23 0 0 0 8 3.23l3.74-11.12z" fill="none"></path>
    <path d="M12.43 22.54a21.86 21.86 0 0 0 3.57.3 22.23 22.23 0 0 0 3.6-.3l-3.4-11.12zM27.71 3.66L16.2 11.42l15.1-3.35a11.29 11.29 0 0 0-3.59-4.41zm-27 11.12a11.33 11.33 0 0 0 3.75 4.53l11.74-7.89zm27.06 4.36a11.49 11.49 0 0 0 3.51-4.32l-15.08-3.4z"
          fill="#8399a4"></path>
    <path d="M19.6.3A22.23 22.23 0 0 0 16 0a21.86 21.86 0 0 0-3.57.3l3.77 11.12zM4.25 3.69A11.25 11.25 0 0 0 .73 8l15.47 3.42z" fill="#8399a4"></path>
    <path d="M16 19.68c6.48 0 11.73-3.7 11.73-8.26S22.48 3.16 16 3.16 4.27 6.86 4.27 11.42 9.52 19.68 16 19.68z" fill="#ebebec" stroke="#8399a4" stroke-miterlimit="10"></path>
    <path d="M15.62 16V9.33l-2.07.67V8.49l3.71-1.31h.19V16z"></path>
  </symbol>
  <symbol xmlns="http://www.w3.org/2000/svg" viewBox="0 0 32 26" id="5">
    <title>5</title>
    <path d="M16 26c8.84 0 16-5.11 16-11.42v-3.34c-2-4.67-8.79-8.08-16-8.08S2 6.57 0 11.24v3.34C0 20.89 7.16 26 16 26z" fill="#cfcfcf"></path>
    <path d="M16 22.84c8.84 0 16-5.11 16-11.42S24.84 0 16 0 0 5.11 0 11.42s7.16 11.42 16 11.42z" fill="#ebebec"></path>
    <path d="M16 3.16c-7.21 0-14 3.41-16 8.08v3.34A8.41 8.41 0 0 0 .71 18v-3.42h3.73v7.89a18.32 18.32 0 0 0 8 3.23v-3.21h7.19v3.21a18.13 18.13 0 0 0 8.17-3.41v-7.71h3.51V18a8.41 8.41 0 0 0 .69-3.42v-3.34c-2-4.67-8.79-8.08-16-8.08z" fill="none"></path>
    <path d="M27.78 19.13v3.16l.68-.55A11.08 11.08 0 0 0 31.28 18v-3.17a15 15 0 0 1-3.5 4.3zM16 22.84a22 22 0 0 1-3.58-.3v3.16A22 22 0 0 0 16 26a22.35 22.35 0 0 0 3.61-.3v-3.16a22.35 22.35 0 0 1-3.61.3zM.71 14.79V18a11.41 11.41 0 0 0 3.73 4.52V19.3a11.39 11.39 0 0 1-3.73-4.51z"
          fill="#c6574b"></path>
    <path d="M31.28 14.82a8.4 8.4 0 0 0 .72-3.4 8.52 8.52 0 0 0-.7-3.35l-15.1 3.35zM19.6 22.54a18.28 18.28 0 0 0 8.17-3.4L16.2 11.42zM.73 8a8.32 8.32 0 0 0 0 6.77l15.47-3.35z" fill="none"></path>
    <path d="M12.43.3a18.09 18.09 0 0 0-8.18 3.39l12 7.73z" fill="none"></path>
    <path d="M27.71 3.66A18.1 18.1 0 0 0 19.6.3l-3.4 11.12zM4.46 19.31a18.23 18.23 0 0 0 8 3.23l3.74-11.12z" fill="none"></path>
    <path d="M12.43 22.54a21.86 21.86 0 0 0 3.57.3 22.23 22.23 0 0 0 3.6-.3l-3.4-11.12zM27.71 3.66L16.2 11.42l15.1-3.35a11.29 11.29 0 0 0-3.59-4.41zm-27 11.12a11.33 11.33 0 0 0 3.75 4.53l11.74-7.89zm27.06 4.36a11.49 11.49 0 0 0 3.51-4.32l-15.08-3.4z"
          fill="#ff775c"></path>
    <path d="M19.6.3A22.23 22.23 0 0 0 16 0a21.86 21.86 0 0 0-3.57.3l3.77 11.12zM4.25 3.69A11.25 11.25 0 0 0 .73 8l15.47 3.42z" fill="#ff775c"></path>
    <path d="M16 19.68c6.48 0 11.73-3.7 11.73-8.26S22.48 3.16 16 3.16 4.27 6.86 4.27 11.42 9.52 19.68 16 19.68z" fill="#ebebec" stroke="#ff775c" stroke-miterlimit="10"></path>
    <path d="M13.86 7.27h5v1.5h-3.5l-.21 1.83a2.26 2.26 0 0 1 .57-.22 2.55 2.55 0 0 1 .74-.11 2.89 2.89 0 0 1 1.46.35 2.33 2.33 0 0 1 .93 1 3.74 3.74 0 0 1 .31 1.6 3.26 3.26 0 0 1-.33 1.46 2.56 2.56 0 0 1-1 1.07 3.15 3.15 0 0 1-1.65.41 3.44 3.44 0 0 1-1.47-.32 2.83 2.83 0 0 1-1.12-.9 2.3 2.3 0 0 1-.43-1.37H15a1.28 1.28 0 0 0 .37.82 1.16 1.16 0 0 0 .83.3 1 1 0 0 0 .9-.44 2.06 2.06 0 0 0 .28-1.15A1.58 1.58 0 0 0 17 12a1.27 1.27 0 0 0-1-.4 1.49 1.49 0 0 0-.69.13 1.71 1.71 0 0 0-.47.34l-1.45-.35z"></path>
  </symbol>
  <symbol xmlns="http://www.w3.org/2000/svg" viewBox="0 0 32 26" id="25">
    <title>25</title>
    <path d="M16 26c8.84 0 16-5.11 16-11.42v-3.34c-2-4.67-8.79-8.08-16-8.08S2 6.57 0 11.24v3.34C0 20.89 7.16 26 16 26z" fill="#cfcfcf"></path>
    <path d="M16 22.84c8.84 0 16-5.11 16-11.42S24.84 0 16 0 0 5.11 0 11.42s7.16 11.42 16 11.42z" fill="#ebebec"></path>
    <path d="M16 3.16c-7.21 0-14 3.41-16 8.08v3.34A8.41 8.41 0 0 0 .71 18v-3.42h3.73v7.89a18.32 18.32 0 0 0 8 3.23v-3.21h7.19v3.21a18.13 18.13 0 0 0 8.17-3.41v-7.71h3.51V18a8.41 8.41 0 0 0 .69-3.42v-3.34c-2-4.67-8.79-8.08-16-8.08z" fill="none"></path>
    <path d="M27.78 19.13v3.16l.68-.55A11.08 11.08 0 0 0 31.28 18v-3.17a15 15 0 0 1-3.5 4.3zM16 22.84a22 22 0 0 1-3.58-.3v3.16A22 22 0 0 0 16 26a22.35 22.35 0 0 0 3.61-.3v-3.16a22.35 22.35 0 0 1-3.61.3zM.71 14.79V18a11.41 11.41 0 0 0 3.73 4.52V19.3a11.39 11.39 0 0 1-3.73-4.51z"
          fill="#407a39"></path>
    <path d="M31.28 14.82a8.4 8.4 0 0 0 .72-3.4 8.52 8.52 0 0 0-.7-3.35l-15.1 3.35zM19.6 22.54a18.28 18.28 0 0 0 8.17-3.4L16.2 11.42zM.73 8a8.32 8.32 0 0 0 0 6.77l15.47-3.35z" fill="none"></path>
    <path d="M12.43.3a18.09 18.09 0 0 0-8.18 3.39l12 7.73z" fill="none"></path>
    <path d="M27.71 3.66A18.1 18.1 0 0 0 19.6.3l-3.4 11.12zM4.46 19.31a18.23 18.23 0 0 0 8 3.23l3.74-11.12z" fill="none"></path>
    <path d="M12.43 22.54a21.86 21.86 0 0 0 3.57.3 22.23 22.23 0 0 0 3.6-.3l-3.4-11.12zM27.71 3.66L16.2 11.42l15.1-3.35a11.29 11.29 0 0 0-3.59-4.41zm-27 11.12a11.33 11.33 0 0 0 3.75 4.53l11.74-7.89zm27.06 4.36a11.49 11.49 0 0 0 3.51-4.32l-15.08-3.4z"
          fill="#5db554"></path>
    <path d="M19.6.3A22.23 22.23 0 0 0 16 0a21.86 21.86 0 0 0-3.57.3l3.77 11.12zM4.25 3.69A11.25 11.25 0 0 0 .73 8l15.47 3.42z" fill="#5db554"></path>
    <path d="M16 19.68c6.48 0 11.73-3.7 11.73-8.26S22.48 3.16 16 3.16 4.27 6.86 4.27 11.42 9.52 19.68 16 19.68z" fill="#ebebec" stroke="#5db554" stroke-miterlimit="10"></path>
    <path d="M9.82 15.84v-1.19l2.74-2.88a6.27 6.27 0 0 0 .83-1.08 1.75 1.75 0 0 0 .25-.8 1.25 1.25 0 0 0-.28-.89 1 1 0 0 0-.78-.3 1.19 1.19 0 0 0-.63.17 1.17 1.17 0 0 0-.4.5 1.8 1.8 0 0 0-.14.71H9.66A2.78 2.78 0 0 1 10 8.7a2.59 2.59 0 0 1 1-1 3.15 3.15 0 0 1 1.55-.38 3.61 3.61 0 0 1 1.52.29 2 2 0 0 1 .94.82 2.46 2.46 0 0 1 .32 1.3 2.58 2.58 0 0 1-.22 1.06 4.53 4.53 0 0 1-.63 1c-.27.34-.62.73-1 1.18l-1.4 1.45h3.56v1.4zm7.56-8.41h4.8v1.44h-3.36l-.21 1.76a2.24 2.24 0 0 1 .55-.22 2.34 2.34 0 0 1 .71-.1 2.79 2.79 0 0 1 1.4.33 2.26 2.26 0 0 1 .89 1 3.6 3.6 0 0 1 .3 1.53 3.13 3.13 0 0 1-.32 1.4 2.53 2.53 0 0 1-1 1 3 3 0 0 1-1.59.39 3.37 3.37 0 0 1-1.41-.3 2.68 2.68 0 0 1-1.07-.87 2.25 2.25 0 0 1-.42-1.31h1.75a1.21 1.21 0 0 0 .35.79 1.11 1.11 0 0 0 .79.28 1 1 0 0 0 .86-.42 2 2 0 0 0 .28-1.1 1.54 1.54 0 0 0-.33-1 1.25 1.25 0 0 0-1-.38 1.53 1.53 0 0 0-.66.12 1.73 1.73 0 0 0-.45.33l-1.39-.34z"></path>
  </symbol>
  <symbol xmlns="http://www.w3.org/2000/svg" viewBox="0 0 32 26" id="100">
    <title>100</title>
    <path d="M16 26c8.84 0 16-5.11 16-11.42v-3.34c-2-4.68-8.79-8.08-16-8.08S2 6.56 0 11.24v3.34C0 20.89 7.16 26 16 26z" fill="#cfcfcf"></path>
    <path d="M27 19.69v3.17a11.28 11.28 0 0 0 4.56-5.66V14A11.22 11.22 0 0 1 27 19.69zm-11 3.15a22.09 22.09 0 0 1-4.81-.53v3.16A22.09 22.09 0 0 0 16 26a21.75 21.75 0 0 0 4.78-.52v-3.16a21.81 21.81 0 0 1-4.78.52zM.42 14v3.16a11.22 11.22 0 0 0 4.68 5.76v-3.16A11.26 11.26 0 0 1 .42 14z"
          fill="#217ead"></path>
    <path d="M16 22.84c8.84 0 16-5.11 16-11.42S24.84 0 16 0 0 5.11 0 11.42s7.16 11.42 16 11.42z" fill="#ebebec"></path>
    <path d="M20.78.52A21.75 21.75 0 0 0 16 0a22 22 0 0 0-4.81.53l4.69 10.93zM11.2 22.31a21.93 21.93 0 0 0 4.8.53 21.75 21.75 0 0 0 4.78-.52l-4.9-10.86z" fill="#258de7"></path>
    <path d="M.42 14a11.27 11.27 0 0 0 4.69 5.79l10.77-8.31zM26.89 3.07l-11 8.39 15.7-2.6a11.27 11.27 0 0 0-4.7-5.79zM27 19.7a11.39 11.39 0 0 0 4.56-5.61l-15.68-2.63zM5 3.15A11.24 11.24 0 0 0 .45 8.76l15.43 2.7z" fill="#258de7"></path>
    <path d="M16 20c6.74 0 12.19-3.84 12.19-8.58S22.74 2.84 16 2.84 3.81 6.68 3.81 11.42 9.27 20 16 20z" fill="#ebebec" stroke="#258de7" stroke-miterlimit="10"></path>
    <path d="M9.11 15.64v-6.1l-1.91.57V8.76l3.42-1.2h.17v8.08zm8.02-1.39a2.4 2.4 0 0 1-1 1.13 2.76 2.76 0 0 1-1.46.37 2.82 2.82 0 0 1-1.47-.37 2.42 2.42 0 0 1-1-1.13 4.78 4.78 0 0 1-.34-1.94v-1.43A4.7 4.7 0 0 1 12.27 9a2.4 2.4 0 0 1 1-1.13 2.92 2.92 0 0 1 1.47-.37 2.85 2.85 0 0 1 1.46.37 2.35 2.35 0 0 1 1 1.13 4.69 4.69 0 0 1 .35 1.93v1.43a5 5 0 0 1-.42 1.89zm-1.62-5a.91.91 0 0 0-.81-.43.89.89 0 0 0-.81.43 2.68 2.68 0 0 0-.28 1.42v1.88a2.84 2.84 0 0 0 .28 1.45.9.9 0 0 0 .82.43.87.87 0 0 0 .8-.43 2.86 2.86 0 0 0 .27-1.44v-1.91a2.8 2.8 0 0 0-.27-1.42zm8.2 5a2.4 2.4 0 0 1-1 1.13 2.76 2.76 0 0 1-1.46.37 2.82 2.82 0 0 1-1.47-.37 2.42 2.42 0 0 1-1-1.13 4.78 4.78 0 0 1-.34-1.94v-1.43A4.7 4.7 0 0 1 18.85 9a2.4 2.4 0 0 1 1-1.13 2.89 2.89 0 0 1 1.47-.37 2.85 2.85 0 0 1 1.46.37A2.4 2.4 0 0 1 23.7 9a4.69 4.69 0 0 1 .35 1.93v1.43a5 5 0 0 1-.34 1.89zm-1.62-5a.91.91 0 0 0-.81-.43.89.89 0 0 0-.81.43 2.68 2.68 0 0 0-.28 1.42v1.88a2.74 2.74 0 0 0 .28 1.45.9.9 0 0 0 .82.43.87.87 0 0 0 .8-.43 2.86 2.86 0 0 0 .27-1.44v-1.91a2.8 2.8 0 0 0-.27-1.42z"></path>
  </symbol>
  <symbol xmlns="http://www.w3.org/2000/svg" viewBox="0 0 31 26" id="500">
    <title>500</title>
    <path d="M15.5 26C24.06 26 31 20.89 31 14.58v-3.34c-1.94-4.68-8.52-8.08-15.5-8.08S1.94 6.56 0 11.24v3.34C0 20.89 6.94 26 15.5 26z" fill="#cfcfcf"></path>
    <path d="M26.16 19.69v3.17a11.23 11.23 0 0 0 4.41-5.66V14a11.16 11.16 0 0 1-4.41 5.69zM15.5 22.84a20.73 20.73 0 0 1-4.66-.53v3.16a20.73 20.73 0 0 0 4.66.53 20.46 20.46 0 0 0 4.63-.52v-3.16a20.46 20.46 0 0 1-4.63.52zM.4 14v3.16a11.28 11.28 0 0 0 4.54 5.78v-3.18A11.32 11.32 0 0 1 .4 14z"
          fill="#b23665"></path>
    <path d="M15.5 22.84c8.56 0 15.5-5.11 15.5-11.42S24.06 0 15.5 0 0 5.11 0 11.42s6.94 11.42 15.5 11.42z" fill="#ebebec"></path>
    <path d="M20.13.52A20.46 20.46 0 0 0 15.5 0a20.73 20.73 0 0 0-4.66.53l4.54 10.93zm-9.28 21.79a20.64 20.64 0 0 0 4.65.53 20.46 20.46 0 0 0 4.63-.52l-4.75-10.86z" fill="#ed467e"></path>
    <path d="M.4 14A11.27 11.27 0 0 0 5 19.77l10.43-8.31zM26.05 3.07l-10.67 8.39 15.22-2.6a11.27 11.27 0 0 0-4.55-5.79z" fill="#ed467e"></path>
    <path d="M26.15 19.7a11.24 11.24 0 0 0 4.42-5.61l-15.19-2.63zM4.83 3.15A11.24 11.24 0 0 0 .44 8.76l14.94 2.7z" fill="#ed467e"></path>
    <path d="M15.5 20c6.52 0 11.81-3.84 11.81-8.58S22 2.84 15.5 2.84 3.69 6.68 3.69 11.42 9 20 15.5 20z" fill="#ebebec" stroke="#ed467e" stroke-miterlimit="10"></path>
    <path d="M7.38 7.68h4.38v1.37H8.69l-.18 1.68a2 2 0 0 1 .5-.21 2.25 2.25 0 0 1 .64-.09 2.36 2.36 0 0 1 1.28.32 2 2 0 0 1 .81.93 3.38 3.38 0 0 1 .26 1.45 3.17 3.17 0 0 1-.29 1.35 2.33 2.33 0 0 1-.89 1 2.65 2.65 0 0 1-1.45.37 2.9 2.9 0 0 1-1.28-.29 2.38 2.38 0 0 1-1-.82 2.16 2.16 0 0 1-.38-1.26h1.63a1.13 1.13 0 0 0 .32.75 1 1 0 0 0 .72.28.88.88 0 0 0 .79-.4 2 2 0 0 0 .25-1.11 1.51 1.51 0 0 0-.3-1 1.12 1.12 0 0 0-.91-.37 1.26 1.26 0 0 0-.59.12 1.38 1.38 0 0 0-.41.32l-1.28-.33zm10.53 6.65a2.38 2.38 0 0 1-.91 1.13 2.8 2.8 0 0 1-2.78 0 2.34 2.34 0 0 1-.92-1.13 4.88 4.88 0 0 1-.3-1.93V11a5.06 5.06 0 0 1 .32-1.92 2.39 2.39 0 0 1 .92-1.13 2.86 2.86 0 0 1 2.78 0 2.39 2.39 0 0 1 .92 1.13 4.88 4.88 0 0 1 .29 1.92v1.4a4.9 4.9 0 0 1-.32 1.93zm-1.54-5a.9.9 0 0 0-1.54 0 2.86 2.86 0 0 0-.26 1.41v1.88a3 3 0 0 0 .26 1.43.88.88 0 0 0 .78.43.85.85 0 0 0 .77-.43 3 3 0 0 0 .25-1.43v-1.87a2.86 2.86 0 0 0-.26-1.41zm7.79 5a2.27 2.27 0 0 1-.91 1.13 2.5 2.5 0 0 1-1.38.37 2.57 2.57 0 0 1-1.4-.37 2.39 2.39 0 0 1-.92-1.13 4.88 4.88 0 0 1-.33-1.93V11a4.86 4.86 0 0 1 .33-1.92 2.38 2.38 0 0 1 .91-1.13 2.88 2.88 0 0 1 2.79 0 2.38 2.38 0 0 1 .91 1.13 4.86 4.86 0 0 1 .33 1.92v1.4a4.88 4.88 0 0 1-.33 1.93zm-1.54-5a.9.9 0 0 0-1.53 0 2.73 2.73 0 0 0-.27 1.41v1.88a2.84 2.84 0 0 0 .27 1.43.86.86 0 0 0 .78.43.84.84 0 0 0 .76-.43 3 3 0 0 0 .25-1.43v-1.87a2.75 2.75 0 0 0-.26-1.41z"></path>
  </symbol>
  <symbol xmlns="http://www.w3.org/2000/svg" viewBox="0 0 32 26" id="1000">
    <title>1000</title>
    <path d="M16 26c8.84 0 16-5.11 16-11.42v-3.34c-2-4.68-8.79-8.08-16-8.08S2 6.56 0 11.24v3.34C0 20.89 7.16 26 16 26z" fill="#cfcfcf"></path>
    <path d="M27 19.69v3.17a11.28 11.28 0 0 0 4.56-5.66V14A11.22 11.22 0 0 1 27 19.69zm-11 3.15a22.09 22.09 0 0 1-4.81-.53v3.16A22.09 22.09 0 0 0 16 26a21.75 21.75 0 0 0 4.78-.52v-3.16a21.81 21.81 0 0 1-4.78.52zM.42 14v3.16a11.22 11.22 0 0 0 4.68 5.76v-3.16A11.26 11.26 0 0 1 .42 14z"
          fill="#c67809"></path>
    <path d="M16 22.84c8.84 0 16-5.11 16-11.42S24.84 0 16 0 0 5.11 0 11.42s7.16 11.42 16 11.42z" fill="#ebebec"></path>
    <path d="M20.78.52A21.75 21.75 0 0 0 16 0a22 22 0 0 0-4.81.53l4.69 10.93zM11.2 22.31a21.93 21.93 0 0 0 4.8.53 21.75 21.75 0 0 0 4.78-.52l-4.9-10.86z" fill="#ffa008"></path>
    <path d="M.42 14a11.27 11.27 0 0 0 4.69 5.79l10.77-8.31zM26.89 3.07l-11 8.39 15.7-2.6a11.27 11.27 0 0 0-4.7-5.79zM27 19.7a11.39 11.39 0 0 0 4.56-5.61l-15.68-2.63zM5 3.15A11.24 11.24 0 0 0 .45 8.76l15.43 2.7z" fill="#ffa008"></path>
    <path d="M16 20c6.74 0 12.19-3.84 12.19-8.58S22.74 2.84 16 2.84 3.81 6.68 3.81 11.42 9.27 20 16 20z" fill="#ebebec" stroke="#ffa008" stroke-miterlimit="10"></path>
    <path d="M11.76 15.79V9.43L9.69 10V8.63l3.7-1.26h.18v8.42zm7.13-2.46l-.61.58v1.88h-1.83V6.91h1.83v4.86l.3-.38 1.63-1.85h2.19l-2.34 2.59 2.53 3.66H20.5z"></path>
  </symbol>
  <symbol xmlns="http://www.w3.org/2000/svg" viewBox="0 0 32 26" id="5000">
    <title>5000</title>
    <path d="M16 26c8.84 0 16-5.11 16-11.42v-3.34c-2-4.68-8.79-8.08-16-8.08S2 6.56 0 11.24v3.34C0 20.89 7.16 26 16 26z" fill="#cfcfcf"></path>
    <path d="M27 19.69v3.17a11.28 11.28 0 0 0 4.56-5.66V14A11.22 11.22 0 0 1 27 19.69zm-11 3.15a22.09 22.09 0 0 1-4.81-.53v3.16A22.09 22.09 0 0 0 16 26a21.75 21.75 0 0 0 4.78-.52v-3.16a21.81 21.81 0 0 1-4.78.52zM.42 14v3.16a11.22 11.22 0 0 0 4.68 5.76v-3.16A11.26 11.26 0 0 1 .42 14z"
          fill="#59413d"></path>
    <path d="M16 22.84c8.84 0 16-5.11 16-11.42S24.84 0 16 0 0 5.11 0 11.42s7.16 11.42 16 11.42z" fill="#ebebec"></path>
    <path d="M20.78.52A21.75 21.75 0 0 0 16 0a22 22 0 0 0-4.81.53l4.69 10.93zM11.2 22.31a21.93 21.93 0 0 0 4.8.53 21.75 21.75 0 0 0 4.78-.52l-4.9-10.86z" fill="#8e685f"></path>
    <path d="M.42 14a11.27 11.27 0 0 0 4.69 5.79l10.77-8.31zM26.89 3.07l-11 8.39 15.7-2.6a11.27 11.27 0 0 0-4.7-5.79zM27 19.7a11.39 11.39 0 0 0 4.56-5.61l-15.68-2.63zM5 3.15A11.24 11.24 0 0 0 .45 8.76l15.43 2.7z" fill="#8e685f"></path>
    <path d="M16 20c6.74 0 12.19-3.84 12.19-8.58S22.74 2.84 16 2.84 3.81 6.68 3.81 11.42 9.27 20 16 20z" fill="#ebebec" stroke="#8e685f" stroke-miterlimit="10"></path>
    <path d="M10.33 7.38h5v1.43h-3.51l-.21 1.76a2.72 2.72 0 0 1 .57-.22 2.92 2.92 0 0 1 .73-.1 3 3 0 0 1 1.46.34 2.21 2.21 0 0 1 .92 1 3.38 3.38 0 0 1 .32 1.52 2.94 2.94 0 0 1-.34 1.41 2.5 2.5 0 0 1-1 1 3.35 3.35 0 0 1-1.65.38 3.57 3.57 0 0 1-1.46-.3 2.73 2.73 0 0 1-1.16-.86 2.22 2.22 0 0 1-.44-1.31h1.81a1.13 1.13 0 0 0 1.2 1.07 1 1 0 0 0 .89-.42 1.94 1.94 0 0 0 .32-1.08 1.48 1.48 0 0 0-.34-1 1.29 1.29 0 0 0-1-.38 1.63 1.63 0 0 0-.68.12 1.67 1.67 0 0 0-.47.33l-1.45-.34zm8.88 5.95l-.61.58v1.88h-1.83V6.91h1.83v4.86l.3-.38 1.64-1.85h2.19l-2.35 2.59 2.53 3.66h-2.09z"></path>
  </symbol>
  <symbol xmlns="http://www.w3.org/2000/svg" viewBox="0 0 32 26" id="25000">
    <title>25000</title>
    <path d="M16 26c8.84 0 16-5.11 16-11.42v-3.34c-2-4.68-8.79-8.08-16-8.08S2 6.56 0 11.24v3.34C0 20.89 7.16 26 16 26z" fill="#cfcfcf"></path>
    <path d="M27 19.69v3.17a11.28 11.28 0 0 0 4.56-5.66V14A11.22 11.22 0 0 1 27 19.69zm-11 3.15a22.09 22.09 0 0 1-4.81-.53v3.16A22.09 22.09 0 0 0 16 26a21.75 21.75 0 0 0 4.78-.52v-3.16a21.81 21.81 0 0 1-4.78.52zM.42 14v3.16a11.22 11.22 0 0 0 4.68 5.76v-3.16A11.26 11.26 0 0 1 .42 14z"
          fill="#0d564d"></path>
    <path d="M16 22.84c8.84 0 16-5.11 16-11.42S24.84 0 16 0 0 5.11 0 11.42s7.16 11.42 16 11.42z" fill="#ebebec"></path>
    <path d="M20.78.52A21.75 21.75 0 0 0 16 0a22 22 0 0 0-4.81.53l4.69 10.93zM11.2 22.31a21.93 21.93 0 0 0 4.8.53 21.75 21.75 0 0 0 4.78-.52l-4.9-10.86z" fill="#149083"></path>
    <path d="M.42 14a11.27 11.27 0 0 0 4.69 5.79l10.77-8.31zM26.89 3.07l-11 8.39 15.7-2.6a11.27 11.27 0 0 0-4.7-5.79zM27 19.7a11.39 11.39 0 0 0 4.56-5.61l-15.68-2.63zM5 3.15A11.24 11.24 0 0 0 .45 8.76l15.43 2.7z" fill="#149083"></path>
    <path d="M16 20c6.74 0 12.19-3.84 12.19-8.58S22.74 2.84 16 2.84 3.81 6.68 3.81 11.42 9.27 20 16 20z" fill="#ebebec" stroke="#149083" stroke-miterlimit="10"></path>
    <path d="M7.76 15.62v-1.15l2.33-2.75a6.22 6.22 0 0 0 .71-1 1.79 1.79 0 0 0 .2-.8 1.3 1.3 0 0 0-.24-.83.81.81 0 0 0-.66-.29.86.86 0 0 0-.52.2 1.12 1.12 0 0 0-.35.47 1.85 1.85 0 0 0-.12.69H7.62a2.91 2.91 0 0 1 .31-1.35 2.38 2.38 0 0 1 .89-1 2.5 2.5 0 0 1 1.32-.35 2.83 2.83 0 0 1 1.29.27 1.85 1.85 0 0 1 .8.79 2.64 2.64 0 0 1 .27 1.24 2.75 2.75 0 0 1-.19 1 4.72 4.72 0 0 1-.53 1c-.23.32-.53.7-.9 1.13l-1.19 1.38h3v1.35zm6.43-8.05h4.08v1.37h-2.86l-.17 1.69a1.88 1.88 0 0 1 .47-.21 2 2 0 0 1 .6-.1 2.18 2.18 0 0 1 1.19.32 2.13 2.13 0 0 1 .76.93 3.77 3.77 0 0 1 .26 1.43 3.09 3.09 0 0 1-.28 1.34 2.33 2.33 0 0 1-.82 1 2.44 2.44 0 0 1-1.36.37 2.58 2.58 0 0 1-1.19-.29 2.27 2.27 0 0 1-.91-.83 2.32 2.32 0 0 1-.36-1.25h1.48a1.22 1.22 0 0 0 .3.75.91.91 0 0 0 .68.27.77.77 0 0 0 .73-.4 2.12 2.12 0 0 0 .21-1.03 1.6 1.6 0 0 0-.28-1 1 1 0 0 0-.84-.36 1.13 1.13 0 0 0-.56.12A1.57 1.57 0 0 0 15 12l-1.19-.32zm7.28 5.69l-.5.56v1.8h-1.5V7.13H21v4.64l.24-.36 1.34-1.77h1.8l-1.92 2.48 2.07 3.5h-1.74z"></path>
  </symbol>
  <symbol xmlns="http://www.w3.org/2000/svg" viewBox="0 0 32 26" id="100000">
    <title>100000</title>
    <path d="M16 26c8.84 0 16-5.11 16-11.42v-3.34c-2-4.68-8.79-8.08-16-8.08S2 6.56 0 11.24v3.34C0 20.89 7.16 26 16 26z" fill="#cfcfcf"></path>
    <path d="M27 19.69v3.17a11.28 11.28 0 0 0 4.56-5.66V14A11.22 11.22 0 0 1 27 19.69zm-11 3.15a22.09 22.09 0 0 1-4.81-.53v3.16A22.09 22.09 0 0 0 16 26a21.75 21.75 0 0 0 4.78-.52v-3.16a21.81 21.81 0 0 1-4.78.52zM.42 14v3.16a11.22 11.22 0 0 0 4.68 5.76v-3.16A11.26 11.26 0 0 1 .42 14z"
          fill="#2c3a75"></path>
    <path d="M16 22.84c8.84 0 16-5.11 16-11.42S24.84 0 16 0 0 5.11 0 11.42s7.16 11.42 16 11.42z" fill="#ebebec"></path>
    <path d="M20.78.52A21.75 21.75 0 0 0 16 0a22 22 0 0 0-4.81.53l4.69 10.93zM11.2 22.31a21.93 21.93 0 0 0 4.8.53 21.75 21.75 0 0 0 4.78-.52l-4.9-10.86z" fill="#4050af"></path>
    <path d="M.42 14a11.27 11.27 0 0 0 4.69 5.79l10.77-8.31zM26.89 3.07l-11 8.39 15.7-2.6a11.27 11.27 0 0 0-4.7-5.79zM27 19.7a11.39 11.39 0 0 0 4.56-5.61l-15.68-2.63zM5 3.15A11.24 11.24 0 0 0 .45 8.76l15.43 2.7z" fill="#4050af"></path>
    <path d="M16 20c6.74 0 12.19-3.84 12.19-8.58S22.74 2.84 16 2.84 3.81 6.68 3.81 11.42 9.27 20 16 20z" fill="#ebebec" stroke="#4050af" stroke-miterlimit="10"></path>
    <path d="M8 15.68V9.85l-1.48.54V9.11L9.17 8h.14v7.72zm6.2-1.33a2.15 2.15 0 0 1-.74 1.08 1.82 1.82 0 0 1-1.13.36 1.84 1.84 0 0 1-1.13-.36 2.23 2.23 0 0 1-.75-1.08 5.44 5.44 0 0 1-.27-1.85v-1.37a5.34 5.34 0 0 1 .27-1.84 2.23 2.23 0 0 1 .74-1.09 2 2 0 0 1 2.27 0 2.29 2.29 0 0 1 .74 1.09 5.34 5.34 0 0 1 .27 1.84v1.37a5.44 5.44 0 0 1-.27 1.85zM13 9.55a.68.68 0 0 0-1.25 0 3.23 3.23 0 0 0-.21 1.36v1.8a3.22 3.22 0 0 0 .21 1.37.68.68 0 0 0 1.26 0 3.42 3.42 0 0 0 .2-1.37v-1.8A3.23 3.23 0 0 0 13 9.55zm6.3 4.8a2.28 2.28 0 0 1-.74 1.08 2 2 0 0 1-2.27 0 2.23 2.23 0 0 1-.75-1.08 5.44 5.44 0 0 1-.27-1.85v-1.37a5.34 5.34 0 0 1 .27-1.84 2.29 2.29 0 0 1 .74-1.09 2 2 0 0 1 2.27 0 2.23 2.23 0 0 1 .74 1.09 5.34 5.34 0 0 1 .27 1.84v1.37a5.72 5.72 0 0 1-.26 1.85zM18 9.55a.68.68 0 0 0-1.25 0 3.23 3.23 0 0 0-.21 1.36v1.8a3.22 3.22 0 0 0 .21 1.37.69.69 0 0 0 .64.42.67.67 0 0 0 .62-.42 3.25 3.25 0 0 0 .2-1.37v-1.8A3.23 3.23 0 0 0 18 9.55zm4.17 3.87l-.44.54v1.72h-1.3V7.53h1.3V12l.22-.35 1.17-1.7h1.57L23 12.32l1.81 3.36h-1.5z"></path>
  </symbol>
  <symbol xmlns="http://www.w3.org/2000/svg" viewBox="0 0 32 26" id="500000">
    <title>500000</title>
    <path d="M16 26c8.84 0 16-5.11 16-11.42v-3.34c-2-4.68-8.79-8.08-16-8.08S2 6.56 0 11.24v3.34C0 20.89 7.16 26 16 26z" fill="#cfcfcf"></path>
    <path d="M27 19.69v3.17a11.28 11.28 0 0 0 4.56-5.66V14A11.22 11.22 0 0 1 27 19.69zm-11 3.15a22.09 22.09 0 0 1-4.81-.53v3.16A22.09 22.09 0 0 0 16 26a21.75 21.75 0 0 0 4.78-.52v-3.16a21.81 21.81 0 0 1-4.78.52zM.42 14v3.16a11.22 11.22 0 0 0 4.68 5.76v-3.16A11.26 11.26 0 0 1 .42 14z"
          fill="#6b227a"></path>
    <path d="M16 22.84c8.84 0 16-5.11 16-11.42S24.84 0 16 0 0 5.11 0 11.42s7.16 11.42 16 11.42z" fill="#ebebec"></path>
    <path d="M20.78.52A21.75 21.75 0 0 0 16 0a22 22 0 0 0-4.81.53l4.69 10.93zM11.2 22.31a21.93 21.93 0 0 0 4.8.53 21.75 21.75 0 0 0 4.78-.52l-4.9-10.86z" fill="#a132b4"></path>
    <path d="M.42 14a11.27 11.27 0 0 0 4.69 5.79l10.77-8.31zM26.89 3.07l-11 8.39 15.7-2.6a11.27 11.27 0 0 0-4.7-5.79zM27 19.7a11.39 11.39 0 0 0 4.56-5.61l-15.68-2.63zM5 3.15A11.24 11.24 0 0 0 .45 8.76l15.43 2.7z" fill="#a132b4"></path>
    <path d="M16 20c6.74 0 12.19-3.84 12.19-8.58S22.74 2.84 16 2.84 3.81 6.68 3.81 11.42 9.27 20 16 20z" fill="#ebebec" stroke="#a132b4" stroke-miterlimit="10"></path>
    <path d="M7 8h3.43v1.21H8l-.14 1.53a1.77 1.77 0 0 1 .39-.19 1.44 1.44 0 0 1 .51-.09 1.67 1.67 0 0 1 1 .3 1.71 1.71 0 0 1 .63.84 3.51 3.51 0 0 1 .22 1.32 3.28 3.28 0 0 1-.23 1.23 2 2 0 0 1-.69.89 1.92 1.92 0 0 1-1.14.34 2.06 2.06 0 0 1-1.77-1 2.11 2.11 0 0 1-.3-1.14h1.28a1.13 1.13 0 0 0 .25.69.73.73 0 0 0 .57.25.65.65 0 0 0 .61-.37 2 2 0 0 0 .2-1 1.51 1.51 0 0 0-.24-.91.81.81 0 0 0-.71-.33.94.94 0 0 0-.47.1 1.43 1.43 0 0 0-.32.29l-1-.3zm8.25 6a2.07 2.07 0 0 1-.71 1 1.92 1.92 0 0 1-2.18 0 2.08 2.08 0 0 1-.72-1 5.09 5.09 0 0 1-.26-1.75V11a5.09 5.09 0 0 1 .26-1.75 2.12 2.12 0 0 1 .72-1 1.95 1.95 0 0 1 2.17 0 2.12 2.12 0 0 1 .72 1 5.09 5.09 0 0 1 .26 1.75v1.29a5.09 5.09 0 0 1-.26 1.71zm-1.2-4.54a.66.66 0 0 0-1.21 0 3.08 3.08 0 0 0-.2 1.29v1.7a3.1 3.1 0 0 0 .2 1.3.65.65 0 0 0 .61.4.63.63 0 0 0 .6-.4 3 3 0 0 0 .2-1.3v-1.7a3.08 3.08 0 0 0-.2-1.28zm6.1 4.54a2.13 2.13 0 0 1-.71 1 1.92 1.92 0 0 1-2.18 0 2.08 2.08 0 0 1-.72-1 5.09 5.09 0 0 1-.26-1.75V11a4.86 4.86 0 0 1 .26-1.75 2.11 2.11 0 0 1 .71-1 2 2 0 0 1 2.18 0 2.12 2.12 0 0 1 .72 1A5.11 5.11 0 0 1 20.4 11v1.29a5.11 5.11 0 0 1-.25 1.71zm-1.21-4.53a.63.63 0 0 0-.6-.39.64.64 0 0 0-.6.39 2.92 2.92 0 0 0-.2 1.29v1.7a3 3 0 0 0 .2 1.3.65.65 0 0 0 .61.4.63.63 0 0 0 .6-.4 3.1 3.1 0 0 0 .2-1.3v-1.7a2.9 2.9 0 0 0-.21-1.29zm3.98 3.67l-.42.5v1.64h-1.26V7.56h1.26v4.22l.2-.33 1.13-1.61h1.51l-1.62 2.26 1.75 3.18H24z"></path>
  </symbol>
  <symbol xmlns="http://www.w3.org/2000/svg" viewBox="0 0 32 26" id="1000000">
    <title>1000000</title>
    <path d="M16 26c8.84 0 16-5.11 16-11.42v-3.34c-2-4.68-8.79-8.08-16-8.08S2 6.56 0 11.24v3.34C0 20.89 7.16 26 16 26z" fill="#cfcfcf"></path>
    <path d="M27 19.69v3.17a11.28 11.28 0 0 0 4.56-5.66V14A11.22 11.22 0 0 1 27 19.69zm-11 3.15a22.09 22.09 0 0 1-4.81-.53v3.16A22.09 22.09 0 0 0 16 26a21.75 21.75 0 0 0 4.78-.52v-3.16a21.81 21.81 0 0 1-4.78.52zM.42 14v3.16a11.22 11.22 0 0 0 4.68 5.76v-3.16A11.26 11.26 0 0 1 .42 14z"
          fill="#222c30"></path>
    <path d="M16 22.84c8.84 0 16-5.11 16-11.42S24.84 0 16 0 0 5.11 0 11.42s7.16 11.42 16 11.42z" fill="#ebebec"></path>
    <path d="M20.78.52A21.75 21.75 0 0 0 16 0a22 22 0 0 0-4.81.53l4.69 10.93zM11.2 22.31a21.93 21.93 0 0 0 4.8.53 21.75 21.75 0 0 0 4.78-.52l-4.9-10.86z" fill="#485e68"></path>
    <path d="M.42 14a11.27 11.27 0 0 0 4.69 5.79l10.77-8.31zM26.89 3.07l-11 8.39 15.7-2.6a11.27 11.27 0 0 0-4.7-5.79zM27 19.7a11.39 11.39 0 0 0 4.56-5.61l-15.68-2.63zM5 3.15A11.24 11.24 0 0 0 .45 8.76l15.43 2.7z" fill="#485e68"></path>
    <path d="M16 20c6.74 0 12.19-3.84 12.19-8.58S22.74 2.84 16 2.84 3.81 6.68 3.81 11.42 9.27 20 16 20z" fill="#ebebec" stroke="#485e68" stroke-miterlimit="10"></path>
    <path d="M9.58 15.67V9.58l-2 .57V8.81l3.55-1.2h.18v8.06zm13.54 0h-1.83v-2.08l.18-3.85-2.21 5.93H18l-2.18-5.93.18 3.85v2.08h-1.82V7.61h2.38l2.09 5.75 2.08-5.75h2.39z"></path>
  </symbol>
  <symbol xmlns="http://www.w3.org/2000/svg" viewBox="0 0 32 26" id="5000000">
    <title>5000000</title>
    <path d="M16 26c8.84 0 16-5.11 16-11.42v-3.34c-2-4.68-8.79-8.08-16-8.08S2 6.56 0 11.24v3.34C0 20.89 7.16 26 16 26z" fill="#cfcfcf"></path>
    <path d="M27 19.69v3.17a11.28 11.28 0 0 0 4.56-5.66V14A11.22 11.22 0 0 1 27 19.69zm-11 3.15a22.09 22.09 0 0 1-4.81-.53v3.16A22.09 22.09 0 0 0 16 26a21.75 21.75 0 0 0 4.78-.52v-3.16a21.81 21.81 0 0 1-4.78.52zM.42 14v3.16a11.22 11.22 0 0 0 4.68 5.76v-3.16A11.26 11.26 0 0 1 .42 14z"
          fill="#2a0f56"></path>
    <path d="M16 22.84c8.84 0 16-5.11 16-11.42S24.84 0 16 0 0 5.11 0 11.42s7.16 11.42 16 11.42z" fill="#ebebec"></path>
    <path d="M20.78.52A21.75 21.75 0 0 0 16 0a22 22 0 0 0-4.81.53l4.69 10.93zM11.2 22.31a21.93 21.93 0 0 0 4.8.53 21.75 21.75 0 0 0 4.78-.52l-4.9-10.86z" fill="#4b178f"></path>
    <path d="M.42 14a11.27 11.27 0 0 0 4.69 5.79l10.77-8.31zM26.89 3.07l-11 8.39 15.7-2.6a11.27 11.27 0 0 0-4.7-5.79zM27 19.7a11.39 11.39 0 0 0 4.56-5.61l-15.68-2.63zM5 3.15A11.24 11.24 0 0 0 .45 8.76l15.43 2.7z" fill="#4b178f"></path>
    <path d="M16 20c6.74 0 12.19-3.84 12.19-8.58S22.74 2.84 16 2.84 3.81 6.68 3.81 11.42 9.27 20 16 20z" fill="#ebebec" stroke="#4b178f" stroke-miterlimit="10"></path>
    <path d="M8.44 7.61h4.78V9H9.87l-.2 1.69a2.26 2.26 0 0 1 .55-.21 2.69 2.69 0 0 1 .7-.09 2.79 2.79 0 0 1 1.4.32 2.09 2.09 0 0 1 .88.93 3.25 3.25 0 0 1 .31 1.46 2.81 2.81 0 0 1-.33 1.35 2.38 2.38 0 0 1-1 1 3.12 3.12 0 0 1-1.59.37 3.35 3.35 0 0 1-1.4-.29 2.62 2.62 0 0 1-1.06-.82 2.12 2.12 0 0 1-.42-1.26h1.78a1.07 1.07 0 0 0 .35.75 1.14 1.14 0 0 0 .79.28 1 1 0 0 0 .85-.4 1.83 1.83 0 0 0 .28-1.08 1.44 1.44 0 0 0-.33-1 1.28 1.28 0 0 0-1-.36 1.65 1.65 0 0 0-.65.11 2 2 0 0 0-.45.32L8 11.71zm15.22 8.06h-1.83v-2.08L22 9.74l-2.2 5.93h-1.23l-2.21-5.93.18 3.85v2.08h-1.82V7.61h2.38l2.09 5.75 2.08-5.75h2.39z"></path>
  </symbol>
  <symbol xmlns="http://www.w3.org/2000/svg" viewBox="0 0 32 26" id="25000000">
    <title>25000000</title>
    <path d="M16 26c8.84 0 16-5.11 16-11.42v-3.34c-2-4.68-8.79-8.08-16-8.08S2 6.56 0 11.24v3.34C0 20.89 7.16 26 16 26z" fill="#cfcfcf"></path>
    <path d="M27 19.69v3.17a11.28 11.28 0 0 0 4.56-5.66V14A11.22 11.22 0 0 1 27 19.69zm-11 3.15a22.09 22.09 0 0 1-4.81-.53v3.16A22.09 22.09 0 0 0 16 26a21.75 21.75 0 0 0 4.78-.52v-3.16a21.81 21.81 0 0 1-4.78.52zM.42 14v3.16a11.22 11.22 0 0 0 4.68 5.76v-3.16A11.26 11.26 0 0 1 .42 14z"
          fill="#9b2424"></path>
    <path d="M16 22.84c8.84 0 16-5.11 16-11.42S24.84 0 16 0 0 5.11 0 11.42s7.16 11.42 16 11.42z" fill="#ebebec"></path>
    <path d="M20.78.52A21.75 21.75 0 0 0 16 0a22 22 0 0 0-4.81.53l4.69 10.93zM11.2 22.31a21.93 21.93 0 0 0 4.8.53 21.75 21.75 0 0 0 4.78-.52l-4.9-10.86z" fill="#d5302f"></path>
    <path d="M.42 14a11.27 11.27 0 0 0 4.69 5.79l10.77-8.31zM26.89 3.07l-11 8.39 15.7-2.6a11.27 11.27 0 0 0-4.7-5.79zM27 19.7a11.39 11.39 0 0 0 4.56-5.61l-15.68-2.63zM5 3.15A11.24 11.24 0 0 0 .45 8.76l15.43 2.7z" fill="#d5302f"></path>
    <path d="M16 20c6.74 0 12.19-3.84 12.19-8.58S22.74 2.84 16 2.84 3.81 6.68 3.81 11.42 9.27 20 16 20z" fill="#ebebec" stroke="#d5302f" stroke-miterlimit="10"></path>
    <path d="M7.39 15.5v-1.1l2.07-2.62a5.74 5.74 0 0 0 .63-1 1.84 1.84 0 0 0 .19-.73 1.3 1.3 0 0 0-.21-.79.7.7 0 0 0-.6-.26.71.71 0 0 0-.47.15 1.16 1.16 0 0 0-.31.45 1.93 1.93 0 0 0-.1.65H7.26A2.89 2.89 0 0 1 7.54 9a2.13 2.13 0 0 1 .78-.92 2.09 2.09 0 0 1 1.18-.37 2.28 2.28 0 0 1 1.15.29 1.61 1.61 0 0 1 .71.75 2.58 2.58 0 0 1 .25 1.19 3 3 0 0 1-.17 1 4.58 4.58 0 0 1-.48.93 13.3 13.3 0 0 1-.8 1.08L9.1 14.22h2.7v1.28zm5.72-7.68h3.64v1.31H14.2l-.15 1.6a1.74 1.74 0 0 1 .41-.2 1.61 1.61 0 0 1 .54-.09 1.84 1.84 0 0 1 1.06.31 1.81 1.81 0 0 1 .67.89A3.6 3.6 0 0 1 17 13a3.36 3.36 0 0 1-.25 1.28 2.15 2.15 0 0 1-.74.94 2 2 0 0 1-1.2.35 2.24 2.24 0 0 1-1.07-.27 2.27 2.27 0 0 1-.81-.79 2.33 2.33 0 0 1-.31-1.2h1.32a1.2 1.2 0 0 0 .26.72.79.79 0 0 0 .6.26.71.71 0 0 0 .66-.38 2.24 2.24 0 0 0 .2-1 1.66 1.66 0 0 0-.24-1 .88.88 0 0 0-.76-.34.89.89 0 0 0-.49.11 1.07 1.07 0 0 0-.34.3l-1.06-.31zm11.58 7.68H23.3v-2l.14-3.67-1.69 5.67h-.93l-1.68-5.66.13 3.67v2h-1.38V7.82h1.81l1.59 5.48 1.58-5.48h1.82z"></path>
  </symbol>
  <symbol xmlns="http://www.w3.org/2000/svg" viewBox="0 0 32 26" id="100000000">
    <title>100000000</title>
    <path d="M16 26c8.84 0 16-5.11 16-11.42v-3.34c-2-4.68-8.79-8.08-16-8.08S2 6.56 0 11.24v3.34C0 20.89 7.16 26 16 26z" fill="#cfcfcf"></path>
    <path d="M27 19.69v3.17a11.28 11.28 0 0 0 4.56-5.66V14A11.22 11.22 0 0 1 27 19.69zm-11 3.15a22.09 22.09 0 0 1-4.81-.53v3.16A22.09 22.09 0 0 0 16 26a21.75 21.75 0 0 0 4.78-.52v-3.16a21.81 21.81 0 0 1-4.78.52zM.42 14v3.16a11.22 11.22 0 0 0 4.68 5.76v-3.16A11.26 11.26 0 0 1 .42 14z"
          fill="#261817"></path>
    <path d="M16 22.84c8.84 0 16-5.11 16-11.42S24.84 0 16 0 0 5.11 0 11.42s7.16 11.42 16 11.42z" fill="#ebebec"></path>
    <path d="M20.78.52A21.75 21.75 0 0 0 16 0a22 22 0 0 0-4.81.53l4.69 10.93zM11.2 22.31a21.93 21.93 0 0 0 4.8.53 21.75 21.75 0 0 0 4.78-.52l-4.9-10.86z" fill="#5b3a37"></path>
    <path d="M.42 14a11.27 11.27 0 0 0 4.69 5.79l10.77-8.31zM26.89 3.07l-11 8.39 15.7-2.6a11.27 11.27 0 0 0-4.7-5.79zM27 19.7a11.39 11.39 0 0 0 4.56-5.61l-15.68-2.63zM5 3.15A11.24 11.24 0 0 0 .45 8.76l15.43 2.7z" fill="#5b3a37"></path>
    <path d="M16 20c6.74 0 12.19-3.84 12.19-8.58S22.74 2.84 16 2.84 3.81 6.68 3.81 11.42 9.27 20 16 20z" fill="#ebebec" stroke="#5b3a37" stroke-miterlimit="10"></path>
    <path d="M7.16 15.16V9.87l-1.38.49V9.19l2.48-1h.12v7zM13 14a2.09 2.09 0 0 1-.7 1 1.92 1.92 0 0 1-2.12 0 2.1 2.1 0 0 1-.71-1 5 5 0 0 1-.25-1.68V11a4.94 4.94 0 0 1 .25-1.67 2.05 2.05 0 0 1 .7-1 1.93 1.93 0 0 1 2.13 0 2.05 2.05 0 0 1 .7 1 4.94 4.94 0 0 1 .22 1.67v1.24A5 5 0 0 1 13 14zm-1.21-4.4a.63.63 0 0 0-.59-.37.61.61 0 0 0-.58.37 2.68 2.68 0 0 0-.2 1.23v1.64a2.7 2.7 0 0 0 .2 1.24.65.65 0 0 0 1.18 0 2.88 2.88 0 0 0 .2-1.24v-1.64a2.68 2.68 0 0 0-.21-1.23zm5.96 4.4a2.09 2.09 0 0 1-.7 1 1.78 1.78 0 0 1-1.06.32 1.8 1.8 0 0 1-1.06-.32 2.1 2.1 0 0 1-.71-1 5 5 0 0 1-.22-1.73V11a4.94 4.94 0 0 1 .25-1.67 2.05 2.05 0 0 1 .7-1 1.93 1.93 0 0 1 2.13 0 2.05 2.05 0 0 1 .7 1A4.94 4.94 0 0 1 18 11v1.24a5 5 0 0 1-.25 1.76zm-1.18-4.4a.65.65 0 0 0-1.17 0 2.68 2.68 0 0 0-.2 1.23v1.64a2.7 2.7 0 0 0 .2 1.24.65.65 0 0 0 1.18 0 2.88 2.88 0 0 0 .19-1.24v-1.64a2.68 2.68 0 0 0-.2-1.23zm8.57 5.56h-1.28v-1.81L24 10l-1.55 5.16h-.86L20 10l.13 3.35v1.81h-1.25v-7h1.67l1.46 5 1.46-5h1.67z"></path>
  </symbol>
  <symbol xmlns="http://www.w3.org/2000/svg" viewBox="0 0 32 26" id="500000000">
    <title>500000000</title>
    <path d="M16 26c8.84 0 16-5.11 16-11.42v-3.34c-2-4.68-8.79-8.08-16-8.08S2 6.56 0 11.24v3.34C0 20.89 7.16 26 16 26z" fill="#cfcfcf"></path>
    <path d="M27 19.69v3.17a11.28 11.28 0 0 0 4.56-5.66V14A11.22 11.22 0 0 1 27 19.69zm-11 3.15a22.09 22.09 0 0 1-4.81-.53v3.16A22.09 22.09 0 0 0 16 26a21.75 21.75 0 0 0 4.78-.52v-3.16a21.81 21.81 0 0 1-4.78.52zM.42 14v3.16a11.22 11.22 0 0 0 4.68 5.76v-3.16A11.26 11.26 0 0 1 .42 14z"
          fill="#3f2c3f"></path>
    <path d="M16 22.84c8.84 0 16-5.11 16-11.42S24.84 0 16 0 0 5.11 0 11.42s7.16 11.42 16 11.42z" fill="#ebebec"></path>
    <path d="M20.78.52A21.75 21.75 0 0 0 16 0a22 22 0 0 0-4.81.53l4.69 10.93zM11.2 22.31a21.93 21.93 0 0 0 4.8.53 21.75 21.75 0 0 0 4.78-.52l-4.9-10.86z" fill="#775074"></path>
    <path d="M.42 14a11.27 11.27 0 0 0 4.69 5.79l10.77-8.31zM26.89 3.07l-11 8.39 15.7-2.6a11.27 11.27 0 0 0-4.7-5.79zM27 19.7a11.39 11.39 0 0 0 4.56-5.61l-15.68-2.63zM5 3.15A11.24 11.24 0 0 0 .45 8.76l15.43 2.7z" fill="#775074"></path>
    <path d="M16 20c6.74 0 12.19-3.84 12.19-8.58S22.74 2.84 16 2.84 3.81 6.68 3.81 11.42 9.27 20 16 20z" fill="#ebebec" stroke="#775074" stroke-miterlimit="10"></path>
    <path d="M6.35 8h3.17v1.24H7.3l-.14 1.49a2 2 0 0 1 .36-.18 1.27 1.27 0 0 1 .48-.09 1.54 1.54 0 0 1 .93.29 1.75 1.75 0 0 1 .58.82 3.59 3.59 0 0 1 .2 1.3 3.31 3.31 0 0 1-.21 1.19 2 2 0 0 1-.64.87 1.69 1.69 0 0 1-1 .33 1.81 1.81 0 0 1-.99-.26 1.89 1.89 0 0 1-.7-.73 2.34 2.34 0 0 1-.28-1.11H7a1.16 1.16 0 0 0 .23.66.64.64 0 0 0 .53.25.58.58 0 0 0 .56-.36 2.1 2.1 0 0 0 .18-.94 1.63 1.63 0 0 0-.21-.89.75.75 0 0 0-.66-.32.78.78 0 0 0-.43.11 1.08 1.08 0 0 0-.3.27l-.9-.28zM14 13.93a2.09 2.09 0 0 1-.66 1 1.7 1.7 0 0 1-2 0 2 2 0 0 1-.67-1 5.52 5.52 0 0 1-.23-1.71V11a5.45 5.45 0 0 1 .23-1.7 2.09 2.09 0 0 1 .66-1 1.61 1.61 0 0 1 1-.33 1.56 1.56 0 0 1 1 .33 2 2 0 0 1 .67 1 5.45 5.45 0 0 1 .23 1.7v1.27a5.52 5.52 0 0 1-.23 1.66zM12.85 9.5a.6.6 0 0 0-.56-.38.59.59 0 0 0-.56.38 3.13 3.13 0 0 0-.18 1.25v1.67a3.15 3.15 0 0 0 .18 1.26.61.61 0 0 0 .57.39.59.59 0 0 0 .55-.39 3.15 3.15 0 0 0 .15-1.26v-1.67a3.13 3.13 0 0 0-.15-1.25zm5.63 4.43a2.09 2.09 0 0 1-.66 1 1.7 1.7 0 0 1-2 0 2 2 0 0 1-.67-1 5.24 5.24 0 0 1-.23-1.71V11a5.17 5.17 0 0 1 .23-1.7 2.09 2.09 0 0 1 .66-1 1.61 1.61 0 0 1 1-.33 1.58 1.58 0 0 1 1 .33 2 2 0 0 1 .67 1 5.45 5.45 0 0 1 .23 1.7v1.27a5.52 5.52 0 0 1-.23 1.66zM17.36 9.5a.58.58 0 0 0-.55-.38.59.59 0 0 0-.56.38 3.1 3.1 0 0 0-.19 1.25v1.67a3.12 3.12 0 0 0 .19 1.26.61.61 0 0 0 .57.39.59.59 0 0 0 .55-.39 3.15 3.15 0 0 0 .18-1.26v-1.67a2.93 2.93 0 0 0-.19-1.25zm8.11 5.66h-1.21v-1.84l.12-3.42-1.47 5.26h-.82L20.63 9.9l.12 3.42v1.84h-1.2V8h1.57l1.39 5.1L23.89 8h1.58z"></path>
  </symbol>
</svg>
